<svg width="219" height="219" fill="none" xmlns="http://www.w3.org/2000/svg"><g clip-path="url(#clip0)"><circle cx="109.5" cy="109.5" r="91.5" transform="rotate(-6.8 109.5 109.5)" fill="url(#paint0_linear)" stroke="#0D0543" stroke-width="6"/><mask id="a" fill="#fff"><path fill-rule="evenodd" clip-rule="evenodd" d="M175.8 137.3c-.3-7.7-.9-15.7-1.9-23.8-6-50.1-24-92-45.6-111.5-16.3 24-24 69-17.9 119.2 1 8 2.2 15.9 3.8 23.5l61.6-7.4z"/></mask><path fill-rule="evenodd" clip-rule="evenodd" d="M175.8 137.3c-.3-7.7-.9-15.7-1.9-23.8-6-50.1-24-92-45.6-111.5-16.3 24-24 69-17.9 119.2 1 8 2.2 15.9 3.8 23.5l61.6-7.4z" fill="#FAFAFA"/><path d="M175.8 137.3l.7 6 5.5-.7-.2-5.5-6 .2zM128.3 2l4-4.5-5-4.6-4 5.7 5 3.4zm-14 142.7l-6 1.2 1.1 5.4 5.5-.7-.7-6zm67.5-7.6c-.3-8-1-16-1.9-24.3l-12 1.5c1 7.9 1.6 15.6 2 23.2l11.9-.4zm-1.9-24.3C173.8 62 155.4 18.4 132.3-2.5l-8 9c20 18 37.7 58.3 43.7 107.8l11.9-1.5zM123.4-1.4c-17.5 25.7-25 72.5-19 123.3l12-1.4c-6-49.5 1.8-92.9 16.9-115.1l-10-6.8zm-19 123.3c1 8.2 2.3 16.2 4 24l11.7-2.4c-1.5-7.4-2.8-15.1-3.7-23l-12 1.4zm10.5 28.7l61.6-7.3-1.4-12-61.6 7.4 1.4 12z" fill="#0D0543" mask="url(#a)"/><path d="M157 156.7l20.8-2.5" stroke="#FAFAFA" stroke-width="6" stroke-linecap="round"/><path d="M142.1 117.2l-6.4-53.7" stroke="#0D0543" stroke-width="6" stroke-linecap="round"/><path d="M118.5 142c-1.1.2-2 .2-2.8 0l-1.8-.6c-.5-.3-.8-.5-1-.8l-.3-.5v-1a4.4 4.4 0 011-1.8c.2-.3.4-.4.6-.4a77.6 77.6 0 001.5 1l1 .2h1.3c1 0 1.9-.5 2.5-1.2.6-.7.8-1.7.7-2.8a4 4 0 00-.8-2 7 7 0 00-1.7-1.5c-.6-.4-1.3-.9-2.2-1.3a312.1 312.1 0 01-5-2.7 11.7 11.7 0 01-4-4.5 10.8 10.8 0 01-.8-6.9 14.4 14.4 0 013.3-6.6 16.8 16.8 0 015.8-4.7c1.2-.5 2.3-.8 3.5-1 1-.1 2 0 2.8.2a5.6 5.6 0 013.7 3 8.3 8.3 0 01.6 5.6c-.2 1-.5 1.9-1 2.8a15.6 15.6 0 01-5.5 6c-.6.4-1.2.6-1.8.6l-1.2-.1-1-.7-.7-1c-.2-.2-.3-.5-.3-.8v-.5H116.2c.7-.1 1.4-.5 2.2-1a11.5 11.5 0 003.8-5c.4-1 .6-1.8.5-2.7a3 3 0 00-1-2c-.4-.4-1.2-.6-2.2-.5a11.5 11.5 0 00-4.2 2 13.7 13.7 0 00-3.6 4c-.4.9-.8 1.7-1 2.7a7.7 7.7 0 00.7 5.3c.5.7 1 1.4 1.7 2l2.3 1.5a138.5 138.5 0 005 2.7c.8.4 1.5 1 2.2 1.6a8 8 0 011.7 2.1c.5.8.8 1.7 1 2.8 0 1 0 2-.3 3a7.5 7.5 0 01-3.6 4.6c-.9.5-1.9.8-3 1zm26.3-3.6c-.5.1-1 0-1.6 0a4.1 4.1 0 01-2.4-1.7c-.3-.4-.5-.9-.6-1.4a9.5 9.5 0 01-1.9 3c-.8.7-1.7 1.2-2.8 1.3a5 5 0 01-2.4-.2 5 5 0 01-2-1.3c-.5-.6-1-1.3-1.3-2.2-.3-1-.6-2-.7-3a30.9 30.9 0 010-8 49.5 49.5 0 01.8-5.2l.6-.6a5 5 0 011.6-.3c.6-.1 1 0 1.2.2.2.2.3.4.3.7 0 .3 0 .7-.2 1l-.2.8a255 255 0 00-.5 5.2 36 36 0 00.3 5.4c.2 1.4.5 2.5 1 3.1.5.7 1.1 1 1.9 1 .5-.1 1-.4 1.3-.8.4-.5.8-1 1-1.7.4-.7.6-1.5.8-2.4l.3-2.7-1-8.3a3.1 3.1 0 00-.7-1.6v-.3c-.1 0 0-.1 0-.2l.4-.2.5-.2.6-.1c.9-.1 1.6 0 2.1.4.6.4.9.9 1 1.5l1.5 13.1.1.6.3.8c0 .2.2.4.5.6.2.2.4.3.8.2.5 0 1-.3 1.2-.7.4-.4.7-1 .9-1.5l.4-1.9.3-1.9c0-.5.1-1 .3-1.2.2-.3.5-.4.7-.4h.7l.6.5.5.6a1.8 1.8 0 01.3.9v.2l-.6 2.8c-.3 1-.7 2-1.2 2.8a8 8 0 01-1.8 2.2c-.8.6-1.7 1-2.9 1.1zm16-1.9h-2a4.6 4.6 0 01-3.3-2.4c-.4-.7-.7-1.7-.8-2.8-.2-1.7-.2-3.4 0-5.3.2-2 .6-4 1.2-6.4l-4 .4-.5.1a67.3 67.3 0 01-.2 9.7c0 .5-.3.9-.6 1h-1.1c-.4-.2-.7-.5-1-.9-.3-.4-.4-.8-.3-1.2l.1-2a33.9 33.9 0 00-.2-4.9l-.2-2.2c-.7-.3-1.2-.7-1.7-1.2s-.8-1.1-.9-1.9a2.2 2.2 0 01.6-1.8l.8-.5c.3-.2.6-.3 1-.3h.9l1 .3.9.8.7 1.2h1a28.5 28.5 0 011.4 0l.4-.1 2.7-.3.6.2c.4.1.7.3 1 .6l.8.8c.3.4.4.7.4 1l-.1.7a90 90 0 00-1 8.8c0 .9 0 1.8.2 2.6l.2 1 .5 1 .7.4c.3.2.6.2 1 .2.6-.1 1-.4 1.4-.8.4-.4.7-1 1-1.5l.4-1.9.2-1.9c0-.5.2-1 .4-1.2.2-.3.4-.4.7-.5.2 0 .4 0 .6.2.3 0 .5.2.7.4l.5.6.2.7v.4a24 24 0 01-.6 2.8c-.2 1-.6 2-1.1 2.8a8 8 0 01-1.9 2.2c-.8.6-1.7 1-2.8 1.1zm6.5-17.6l.1 1.2a41.3 41.3 0 016.7 8.5 28.3 28.3 0 013.4 11c.3 2.1.4 4.1.2 6 0 1.8-.3 3.5-.8 4.8-.4 1.4-1 2.6-1.8 3.4a4.2 4.2 0 01-5 1c-.6-.3-1.2-.9-1.7-1.5-.4-.7-.8-1.5-1-2.4l-.6-2.8-3.3-27.8-.2-.2-.2-.1-1.3-1c-.3-.3-.5-.7-.6-1.1 0-.3 0-.5.2-.8.2-.3.4-.5.9-.6h.3l.4-.1-1.8-14.7a3.2 3.2 0 00-.6-1.6l-.1-.3v-.3l.5-.2.5-.1.6-.2c.8 0 1.5 0 2 .5.6.4 1 .9 1 1.5l1.8 14.6a69.6 69.6 0 017.8-1c.5.2.7.5.8 1v.9a8.5 8.5 0 01-.2 2c0 .4-.2.5-.4.5h-.2l-.2-.2-.4-.2a3 3 0 00-.8 0l-6 .3zm6.3 21.1a27.9 27.9 0 00-1.8-7.3 35.1 35.1 0 00-3.8-7.2l2.7 22.1a18.3 18.3 0 00.5 2.6l.5.9c.2.2.5.4.7.3.4 0 .7-.3 1-1a8 8 0 00.5-2.3v-3.6c0-1.3 0-2.8-.3-4.5zm15.5-23.6a10.2 10.2 0 01-1.3 6c-.5 1-1.2 2-2 2.8-1 .8-2 1.5-3.1 2a4.8 4.8 0 005.2 2.6c1 0 1.8-.4 2.5-.8.6-.5 1.2-1 1.6-1.8l1-2.2.3-2.4c.1-.6.3-1 .6-1.3.4-.2.7-.3 1.1-.2.4 0 .8.2 1 .5.4.3.6.7.6 1.1a16 16 0 01-.6 4l-1 2.2c-.4.7-1 1.3-1.6 2-.7.6-1.5 1-2.4 1.5-1 .5-2 .7-3.3.9a9 9 0 01-9.1-4.9c-.7-1.2-1.1-2.6-1.3-4.2a14.7 14.7 0 011.5-8.5c.6-1.1 1.3-2 2.2-2.7.9-.7 1.8-1.1 2.8-1.2.7-.1 1.4 0 2 .1a4 4 0 011.6 1c.5.3.8.8 1.1 1.4l.6 2.1zm-7.6 7.1l.1.5v.5a7.2 7.2 0 002.8-3.2 8 8 0 00.7-4.3c0-.6-.2-1-.5-1.3-.2-.3-.5-.5-.8-.4-.4 0-.8.2-1.1.5l-.7 1.3-.4 1.6a20.3 20.3 0 000 4.8zm24.3 7.6h-2a4.6 4.6 0 01-3.2-2.4c-.4-.7-.7-1.7-.8-2.8a23 23 0 010-5.4c.2-1.9.6-4 1.2-6.3l-4 .4-.5.1a63.8 63.8 0 01-.2 9.7c0 .5-.3.9-.7 1h-1c-.4-.2-.8-.5-1-.9-.3-.4-.4-.8-.3-1.2l.1-2a33.9 33.9 0 00-.2-4.9l-.2-2.2c-.7-.3-1.3-.7-1.7-1.2-.5-.5-.8-1.1-1-1.9a2.2 2.2 0 01.7-1.8l.7-.6 1-.2h1l1 .3c.3.2.6.4.8.8.3.3.6.7.8 1.2h1a28.5 28.5 0 011.3 0l.4-.1 2.7-.3c.2 0 .4 0 .7.2.3.1.7.3 1 .6l.8.8c.2.3.4.7.3 1v.7a91.4 91.4 0 00-1 8.8c0 .9 0 1.8.2 2.6 0 .4 0 .7.2 1 .1.4.3.6.5.9l.7.5c.3.1.6.2 1 .1.5 0 1-.3 1.4-.7.4-.4.7-1 .9-1.5l.5-1.9.2-1.9c0-.5.1-1 .4-1.2.2-.3.4-.4.6-.5.2 0 .5 0 .7.2.2 0 .4.2.6.4l.5.6c.2.2.3.5.3.7v.4l-.6 2.8c-.3 1-.6 2-1.1 2.8a8 8 0 01-2 2.2c-.7.6-1.6 1-2.7 1.1z" fill="#FAFAFA"/><path d="M115.7 142l1.3-5.9h-.1l-1.2 5.9zm-2.8-1.4l-4.8 3.7.1.1 4.7-3.8zm-.2-1.5l5.8 1.6v-.1l-5.8-1.5zm.3-1l5.3 2.9v-.1h.1L113 138zm.6-.8l4.4 4-4.4-4zm1.2 0l-5 3.3.6.8.7.6 3.7-4.7zm1 .6l-2.7 5.4h.2l.3.2 2.1-5.6zm.9.2l-1.2 6 1.2-6zm3.8-1.2l4.6 3.8-4.6-3.8zm-.1-4.8l-4.8 3.6v.1l4.8-3.7zm-3.9-2.8l-2.7 5.4h.1l2.6-5.4zM114 128l-2.7 5.4 2.7-5.4zm-4.8-3.3l-4.4 4 4.4-4zm-1.7-2.6l-5.4 2.7 5.4-2.7zm-.8-6.9l-5.9-1.2 5.9 1.2zm1.2-3.4l-5.4-2.7 5.4 2.7zm2-3.2l4.7 3.8-4.6-3.8zm2.8-2.7l3.7 4.7-3.7-4.7zm3.1-2l2.5 5.5-2.5-5.5zm8.5.3l-3.9 4.6h.1l3.8-4.6zm1.5 2l-5.3 2.6 5.3-2.7zm-4 12.9l4 4.4h.1l-4-4.4zm-5 1.9l-2.5 5.4h.2l.1.2 2.3-5.6zm-1-.7l-4.3 4.1.1.1.2.2 4-4.4zm-.6-1l-5.3 2.9 5.3-2.8zm-.3-1.3l-4.7-3.7-.3.4-.2.3 5.2 3zm.3 0l-.3 6h.5l.5-.1-.7-6zm.4 0l-1 5.9h.5l.5-6zm6.6-6l-5.5-2.3 5.5 2.4zm-.4-4.7l-4.1 4.4 4-4.4zm-4.3.2l2.5 5.4-2.5-5.4zm-5.8 5.4l5.3 3v-.1l-5.3-3zm-1 2.6L105 114l5.8 1.5zm.7 5.3l-5.1 3.1v.1l5.1-3.2zm1.7 2l-3.9 4.5 3.9-4.5zm4.8 2.8L115 131l2.8-5.3zm2.5 1.4l-3 5.2 3-5.2zm2.2 1.6l-4 4.4v.1l4-4.5zm1.7 2.1l-5.2 3 5.2-3zm.7 5.8l-5.8-1.7 5.8 1.7zm-3.6 4.6l-3-5.2 3 5.2zm-3.7-5a5 5 0 01-.6 0h-.1l-2.6 11.8c1.6.3 3.3.3 4.8.1l-1.5-12zm-.8 0a3.5 3.5 0 01-.3 0h.2l-5.8 10.5c1.2.7 2.4 1 3.5 1.3L117 136zm-.1 0l.1.1.7.7-9.4 7.5c1 1.1 2 1.8 2.8 2.2l5.8-10.5zm.9.9v.2a5 5 0 01.6 1.1l.2 1.1-11.9 1.4c.2 1.5.9 2.6 1 2.6.1.4.4.7.5.9l9.6-7.3zm.8 2.4v1.3l-11.6-3.1c-.3 1-.4 2-.3 3.2l12-1.4zm0 1.2l-.2.4-10.5-5.7c-.5.7-.8 1.6-1 2.4l11.7 2.9zm-.1.2l-.4.5-8.8-8c-.6.6-1.1 1.4-1.5 2.1l10.7 5.4zm-.4.5c-.1.2-.4.5-.9.8-.4.3-1.2.6-2.2.8l-1.4-12a7 7 0 00-4.3 2.3l8.8 8.1zm-3 1.6c-1.4.1-2.6-.2-3.6-.8a5 5 0 01-1.6-1.5l10-6.6c-.8-1.3-2.9-3.5-6.3-3l1.4 11.9zm-3.9-.9c.3.2-.1-.1.1 0 .1.1 0 0 0 .1h.1c0 .1 0 0 0 0l.1.1 7.4-9.4-.2-.2s.1 0 0 0L111 142zm.3.2c.6.5 1.2.8 1.7 1l5.2-10.7h.2l.3.3-7.4 9.4zm2.2 1.3l1.9.5 2.4-11.7h-.1.1l-4.3 11.2zm2 .5c1 .2 2.2.2 3.1.1l-1.4-11.9h.5l-2.2 11.8zm3.1.1a9.6 9.6 0 006.4-3.4l-9.3-7.6.9-.7.6-.2 1.4 12zm6.4-3.4a9.5 9.5 0 002-7.3l-11.9 1.4v-.6c.2-.4.3-.8.6-1l9.3 7.5zm2-7.3a10 10 0 00-2-5l-9.5 7.4a2.3 2.3 0 01-.4-1l12-1.4zm-2-4.9a13 13 0 00-3-2.8l-6.8 9.8.2.2 9.6-7.2zm-3-2.8c-.9-.7-1.9-1.3-3-1.8l-5.2 10.8 1.4.8 6.9-9.8zm-2.8-1.7l-2.5-1.3-5.5 10.7 2.5 1.3 5.5-10.7zm-2.5-1.3c-.7-.3-1.4-.7-2-1.2l-6.5 10.1 3 1.8 5.5-10.7zm-2-1.2c-.5-.2-.8-.5-1.2-.9l-8.8 8.2c1 1 2.2 2 3.5 2.8l6.4-10zm-1.2-.9l-.8-1.2-10.7 5.5c.8 1.4 1.7 2.7 2.7 3.9l8.8-8.2zm-.7-1a5 5 0 01-.4-1.6l-12 1.4c.3 1.8.8 3.7 1.6 5.4l10.8-5.3zm-.4-1.6v-1.5l-11.7-2.5c-.4 1.8-.5 3.6-.2 5.4l11.9-1.4zm0-1.5c.2-.7.4-1.4.8-2l-10.8-5.4c-.8 1.6-1.3 3.2-1.7 4.9l11.8 2.5zm.8-2c.3-.8.8-1.4 1.3-2.1l-9.3-7.6c-1 1.3-2 2.8-2.8 4.3l10.8 5.4zm1.3-2.2l1.8-1.7-7.4-9.4c-1.4 1-2.6 2.3-3.7 3.6l9.3 7.5zm1.8-1.7c.7-.5 1.3-1 2-1.2l-5-11c-1.6.8-3.1 1.7-4.5 2.8l7.5 9.4zm2-1.2c.6-.3 1.1-.5 1.6-.5l-1.4-12c-1.8.3-3.6.8-5.3 1.6l5 10.9zm1.6-.5h.6l3-11.6c-1.7-.5-3.4-.5-5-.3l1.4 11.9zm.6 0l-.2-.1 7.7-9.2a11.6 11.6 0 00-4.5-2.3l-3 11.6zm0 0a.4.4 0 01-.2-.1l10.8-5.4c-.8-1.5-1.8-2.8-3.1-3.9l-7.6 9.3zm-.1 0l.2.6 11.9-1.4c-.2-1.6-.7-3.2-1.4-4.7l-10.7 5.5zm.2.6l-.1.8 11.7 2.7c.4-1.6.5-3.3.3-5l-12 1.5zm-.1.8l-.5 1.4 10.7 5.5c.6-1.3 1.1-2.7 1.5-4.2l-11.7-2.7zm-.5 1.4l-1 1.6 9.4 7.4c.9-1.1 1.6-2.3 2.3-3.5l-10.7-5.5zm-1 1.6l-1.2 1.3 8 9c1-1 1.8-1.9 2.6-3l-9.4-7.3zm-1.2 1.3l-1 .7 6 10.4c1-.6 2-1.3 3-2.2l-8-9zm-1 .7l.5-.1L119 127c1.5-.2 2.9-.8 4-1.4l-6-10.4zm.5-.1c.5 0 1 0 1.7.2l-4.5 11.2c1.4.5 2.9.7 4.3.5l-1.5-12zm2 .3l.6.4-8.2 8.8c.7.7 1.6 1.3 2.5 1.7l5.1-10.9zm.8.7l.3.3-10.6 5.8c.5.8 1 1.5 1.6 2.1l8.7-8.2zm.3.4s.3.5.3 1.2l-11.9 1.4c.2 1.2.6 2.2 1 3l10.6-5.6zm.3 1.2a4.5 4.5 0 010 1.7c-.2.3-.3 1-.7 1.5l-10.4-6a6.4 6.4 0 00-.8 4.2l12-1.4zm-1.2 4a5.7 5.7 0 01-4.7 2.1l.5-12c-1.8 0-3.9.7-5.2 2.4l9.4 7.5zm-3.7 2.1a4.9 4.9 0 01-1.3 0l2-11.8c-.5-.1-1.3-.2-2.2-.1l1.5 11.9zm-.8 0a9 9 0 001.8 0l-1.4-12h.6l-1 12zm1.8 0c2-.2 3.8-1.2 5.1-2.1l-7.1-9.7c-.2.1-.2 0 0 0l.6-.1 1.4 11.9zm5.1-2.1c1.3-1 2.4-2 3.3-3.3L116 111l-1 1 7.1 9.7zm3.3-3.3c1-1.3 1.9-2.7 2.5-4.2l-11.1-4.5-.8 1.3 9.4 7.4zm2.4-4.1c.8-1.7 1.2-3.7 1-5.8l-12 1.4v-.4.1l11 4.7zm1-5.8a9 9 0 00-2.9-5.7l-8 8.9a3 3 0 01-1-1.8l11.8-1.4zm-2.8-5.6a8.6 8.6 0 00-7-2.1l1.3 11.9h-.6c-.5-.2-1.3-.5-2-1.1l8.3-8.7zm-7-2.1c-1.5.1-2.8.6-4 1.1L120 113l.3-.1-1.5-12zm-4 1.1c-1 .5-2.1 1.2-3.1 2l7.2 9.5 1-.6-5-10.9zm-3.1 2c-1 .7-2 1.6-3 2.6l9 8c.4-.4.8-.8 1.2-1l-7.2-9.7zm-3 2.6c-.9 1-1.7 2.2-2.3 3.4l10.5 5.7.8-1.1-9-8zm-2.3 3.4c-.7 1.2-1.2 2.6-1.6 4l11.6 3 .5-1.2-10.5-5.8zm-1.6 4c-.4 1.7-.5 3.3-.3 5l12-1.5v-.6l-11.7-2.9zm-.3 5c.2 1.6.7 3.3 1.7 4.9l10.3-6.2v-.2l-12 1.4zm1.7 5c.8 1.3 1.8 2.4 2.9 3.3l7.8-9.1-.5-.6-10.2 6.4zm3 3.4c1 .8 2 1.5 3.2 2.2l5.7-10.6a8 8 0 01-1.3-.9l-7.6 9.3zm3.2 2.2l2.6 1.3 5.5-10.6-2.4-1.3-5.7 10.6zm2.7 1.4l2.2 1.2 6-10.4-2.9-1.5-5.3 10.7zm2.2 1.2l1.2.8 8-8.8a18 18 0 00-3.3-2.4l-5.9 10.4zm1.3 1c.1 0 .3.2.4.5l10.4-6a14 14 0 00-3-3.6l-7.8 9zm.5.6v.4l12-1.4a13 13 0 00-1.7-5.2l-10.3 6.2zm0 .4v.6l11.5 3.4c.6-1.8.7-3.6.5-5.4l-12 1.4zm0 .7c0 .2-.2.4-.3.5l9.5 7.4c1-1.4 1.9-3 2.3-4.6l-11.5-3.3zm-.3.5c0 .2-.2.3-.5.5l6 10.4c1.5-1 2.9-2 4-3.5l-9.5-7.4zm-.5.5l-.7.2 1.5 11.9c1.8-.2 3.6-.8 5.2-1.7l-6-10.4zm24.8 2.5l-1.5 5.8 1.5-5.8zm-1.4-.7l3.5-4.9-3.5 5zm-1-1l-5 3.4h.1l5-3.4zm-.6-1.4l5.7-1.7-4.7-16.3-6.6 15.7 5.6 2.3zm-7.1 4l-2.2 5.7 2.2-5.6zm-2-1.2l-4.3 4v.1l4.4-4.1zm-1.3-2.2l-5.6 2.1v.1l5.6-2.2zm-1-7.2l-6-.2v.1l6 .1zm.3-3.8l6 .5-6-.5zm.5-3.9l-5.9-1.5v.5l5.9 1zm0-.7l-6-.5V120l6 .2zm1-1.2l-2.7-5.3 2.6 5.3zm2.7-.1l-4.2 4.2v.1h.1l4.1-4.3zm.3.7l-6-.2V119.8h6zm-.2 1l-5.6-2.1v.2l5.6 2zm-.2.8l-6-.7 6 .7zm-.5 5.2l-6-.3v.1l6 .2zm0 2.5l6-.2-6 .2zm1.3 6l-4.9 3.6 4.9-3.6zm3.2.2l-4.4-4.1 4.4 4zm1-1.7l-5.5-2.3 5.6 2.3zm.8-2.4l5.8 1.2-5.8-1.2zm.3-2.7l6 .3v-1l-6 .8zm-1.2-9.1l-5.7 2 .1.2v.2l5.6-2.4zm-.3-.5l-5.3 2.7.2.5.3.4 4.8-3.6zm-.2-.3l-4.7 3.7.4.6.6.4 3.7-4.7zm1-1l1.2 6h.2l.2-.1-1.7-5.8zm2.6.4l-3.5 4.9h.1l3.4-4.9zm2.6 15.2l-5.9 1v.1l6-1.1zm2.8 1l-4.6-3.9v.1l4.6 3.7zm.9-1.6l-5.7-2 5.7 2zm.4-1.9l-5.9-.9v.1l6 .8zm.3-1.9l6 .5-6-.5zm.3-1.2l4.7 3.7h.1v-.1l-4.8-3.6zm1.4-.3l-2.6 5.4.2.1h.2l2.2-5.5zm.6.4l-4.1 4.4.2.1 3.9-4.5zm.5.6l-5.3 2.9.1.1.1.2 5.1-3.2zm.3 1.1l-6-1.2V128.6l6 1zm-.6 2.8l-5.8-1.6v.1l5.8 1.5zm-6.6.2h.5l-2.8 11.7c1.3.3 2.5.3 3.8.2l-1.5-12zm.6 0l.6.3-7 9.8c1 .7 2.2 1.3 3.4 1.6l3-11.6zm.6.3l.4.4-9.8 7c.7.9 1.5 1.7 2.5 2.4l7-9.8zm.5.5l.1.3-11.5 3.3c.3 1.2.8 2.2 1.5 3.2l9.9-6.8zm-11.2-.3c-.2.6-.5.9-.6 1l8.6 8.4c1.4-1.4 2.4-3 3.1-4.8l-11-4.6zm-.6 1a1.5 1.5 0 01.7-.3l1.5 11.9c2.4-.3 4.7-1.4 6.4-3.2L134 134zm.7-.3h.4L131 145c1.7.6 3.5.8 5.2.6l-1.5-12zm.5 0a1 1 0 01.3.3l-8.7 8.2a11 11 0 004.1 2.8l4.3-11.2zm.4.3l-.2-.4-11.1 4.6c.5 1.4 1.4 2.7 2.5 4l8.8-8.2zm-.2-.3l-.4-1.6-11.9 1.5c.2 1.5.6 3 1.1 4.4l11.2-4.3zm-.4-1.6a25 25 0 01-.1-3.3l-12-.2c0 1.7 0 3.3.2 5l12-1.5zm-.1-3.2c0-1.4 0-2.5.2-3.5l-12-1-.2 4.1 12 .4zm.2-3.5c0-1.2.2-2.3.4-3.4l-11.9-2a55 55 0 00-.5 4.4l12 1zm.3-3l.3-1.9-12-.4v-.6l11.7 3zm.2-1.5c0 .7-.3 1.4-.7 2l-10-6.4c-.7 1-1.1 2.1-1.2 3.3l12 1zm-.7 2c-.6 1-1.4 1.4-1.6 1.6l-5.5-10.7c-.9.4-2 1.2-3 2.7l10.1 6.4zm-1.7 1.6l-.5.2h-.2.3l-1.5-11.9c-.8.1-2.1.3-3.4 1l5.3 10.7zm-.4.2h-.3-.6c-.5 0-1.7-.4-2.8-1.5l8.5-8.5a6.8 6.8 0 00-3.8-1.9h-2.5l1.5 12zm-3.6-1.3a5.1 5.1 0 01-1.6-4l12 .6c.1-2-.6-4-2.2-5.4l-8.2 8.8zm-1.6-3.6l.2-1.2 11.2 4.2c.4-.9.6-2 .6-3.1h-12zm.1-1l-.4 2 11.9 1.5a3.2 3.2 0 010 .3c-.1 0-.1 0 0 0l-11.5-3.8zm-.4 2l-.4 2.8 12 1.3.3-2.6-12-1.5zm-.4 2.8l-.2 2.8 12 .5.2-2-12-1.3zm-.2 3v2.9l12-.6v-2l-12-.4zm0 2.9l.3 3.3 12-1.4-.3-2.4-12 .5zm.3 3.3c.2 1.8.7 4 2.1 6l9.7-7c.2 0 .2.2.3.3v-.2l-.2-.5-11.9 1.4zm2.2 6a8 8 0 007.4 3.3l-1.4-12a4.1 4.1 0 013.6 1.5l-9.6 7.3zm7.4 3.3a8.1 8.1 0 005.1-2.7l-9-8 1-.8a4 4 0 011.5-.4l1.4 11.9zm5-2.7c1-1 1.7-2.3 2.2-3.5l-11-4.5c-.2.2-.1 0 0-.1l8.8 8.1zm2.2-3.4c.5-1.1.8-2.3 1-3.5l-11.7-2.3-.4 1.2 11.1 4.6zm1-3.5c.3-1.2.4-2.4.5-3.6l-12-.5-.2 1.8 11.8 2.3zm.4-4.6l-1-8.3-11.9 1.4 1 8.4 12-1.5zm-1-8.3a9 9 0 00-.6-2.6l-11 4.9c-.2-.3-.2-.6-.2-.7v-.2l11.8-1.4zm-.5-2.2l-1-2-9.7 7.2a4.8 4.8 0 01-.6-1.1l11.3-4zm-.5-1.2c-.3-.5-.9-1.4-1.9-2.2l-7.4 9.4a5.2 5.2 0 01-1.4-1.7l10.7-5.5zm-.8-1.2c.6.8 1 1.8 1 2.7l-11.8 1.4c0 1.2.5 2.3 1.3 3.3l9.5-7.4zm1 2.7a5.7 5.7 0 01-1.9 5l-7.8-9c-.9.7-2.5 2.6-2.1 5.4l11.9-1.4zm-1.9 5l-1 .8-4.9-11c-.5.2-1.2.5-1.9 1.1l7.8 9.1zm-1 .8l-.7.2-2.5-11.8c-.6.1-1.1.3-1.7.6l4.8 11zm-.3 0l-.4.1-1.4-11.9c-.6 0-1 .2-1.6.3l3.4 11.6zm-.4.1h-.8c-.4-.1-.9-.3-1.3-.6l7-9.7a8.8 8.8 0 00-6.3-1.6l1.4 12zm-2-.5c-.3-.2-.7-.6-1-1.1a4 4 0 01-.6-1.7l12-1.4a8 8 0 00-3.6-5.8l-6.8 10zm-1.6-2.8l1.6 13.1 11.9-1.4-1.6-13.1-12 1.4zm1.6 13.1l.1 1 11.8-2.2v-.2l-12 1.4zm.1 1l.7 2.1 11-4.9.1.6-11.8 2.2zm.7 2.1c.5 1 1.1 2 2 2.8l7.9-9.1c.4.4.8.9 1 1.4l-11 5zm2 2.8a7 7 0 005.5 1.6l-1.4-12c.4 0 1 0 1.7.2s1.5.5 2 1l-7.8 9.2zm5.5 1.6c2-.3 4-1.3 5.3-3l-9.5-7.4a4.1 4.1 0 012.8-1.5l1.4 11.9zm5.2-2.9c.8-1 1.4-2.2 1.8-3.3l-11.3-4 .2-.3 9.3 7.6zm1.8-3.2c.4-1 .6-2 .8-3.1l-12-1.7v.6l11.2 4.2zm.8-3l.2-2.4-12-1-.1 1.5 11.9 1.9zm.2-2.5v.6c-.2.4-.4 1-.9 1.5l-9.4-7.4a8.1 8.1 0 00-1.6 4.5l12 .8zm-.7 2a5 5 0 01-3.5 2l-1.4-12a7 7 0 00-4.8 2.9l9.7 7zm-3.5 2c-1.1 0-2-.2-2.6-.5l5-10.9c-.9-.4-2.2-.8-3.8-.6l1.4 12zm-2.2-.3a4 4 0 01-1.3-.8l8.2-8.8a8 8 0 00-2.5-1.6l-4.4 11.2zm-1.1-.7l-.9-1 10.6-5.8a8.2 8.2 0 00-1.9-2.3l-7.8 9.1zm-.7-.7c-.3-.4-.5-1-.6-1.7l12-1.5a7.8 7.8 0 00-1.2-3.2l-10.2 6.4zm-.6-1.7l12-1.3v-.1l-12 1.4zm0 0a5.6 5.6 0 010-1.6l11.8 2.4c0-.2.3-1 .1-2.1l-11.9 1.4zm0-1.3c0 .6-.2 1.3-.4 2.1l11.5 3.2c.4-1.2.6-2.3.8-3.5l-11.9-1.8zm-.4 2.2c-.2.5-.3 1-.6 1.3l10.4 6c.8-1.4 1.4-2.8 1.8-4.3l-11.6-3zm-.6 1.3a2 2 0 01-.4.6l7.5 9.3a14 14 0 003.3-4l-10.4-5.9zm-.4.6l.2-.2c.1 0 .1 0 0 0l1.5 11.9c2-.3 4-1 5.8-2.4l-7.5-9.3zm15 3.8l-1.1 5.9 1-6zm-2-.8l-3.4 5h.1l3.4-5zm-1.4-1.6l-5.2 3v.1l5.2-3.1zm-.8-8.1l-6-.8 6 .8zm1.2-6.4l5.8 1.4 2-8.4-8.5 1 .7 6zm-4.5.5l-.7-6-5.8.7.5 5.8 6-.5zm.1 2l-6 .3 6-.4zm0 5.1l-6-.4v.1l6 .3zm-.3 2.6l6 1-6-1zm-.6 1l-2-5.7h-.1l2 5.7zm-1.1 0l-2.6 5.4h.2l2.4-5.4zm-1-.9l-4.9 3.5 5-3.5zm-.3-1.2l6 .8-6-.8zm.1-2l6 .1h-6zm0-2.4l-6 .3v.1l6-.4zm-.2-2.5l6-.4-6 .4zm-.2-2.2l6-.6-.3-3.6-3.4-1.4-2.3 5.6zm-1.7-1.2l-4.3 4.2 4.3-4.2zm-.8-2.8l-5.6-2 5.6 2zm.5-.9l4.4 4h.2l-4.6-4zm.8-.5l2.4 5.4h.2v-.1l-2.6-5.3zm1.9-.3l-.9 6h.1l.8-6zm1 .3l-3 5.2 3-5.2zm1.6 2l-5.5 2.4 1.5 3.6h4v-6zm1 0l.1 6h.4l-.4-6zm5.1-.2l-2.6 5.4h.1l2.5-5.4zm1 .6l-3.8 4.6.1.1 3.7-4.7zm.8.8l-4.8 3.5v.2l4.8-3.7zm.4 1l-6-.3v1l6-.7zm-.7 4.3l6 .9-6-.9zm-.4 5.2h6-6zm1 4.5l-4.8 3.8h.1v.1l4.6-3.9zm.6.5l-2.4 5.5h.1l2.3-5.5zm3.8-4l-6-.9v.1l6 .8zm.2-1.9l6 .5-6-.5zm.4-1.2l4.7 3.7.1-.1-4.8-3.6zm1.3-.3l-2.5 5.4.2.1h.1l2.2-5.5zm.7.4l-4.2 4.3.1.1.1.1 4-4.5zm.5.6l-5.3 2.9v.1l.2.2 5-3.2zm.2 1.1l6 .9v-1.6l-6 .7zm-.6 2.8l-5.8-1.6v.1l5.8 1.5zm-6.5.2h-.2l-2 11.8c1.2.2 2.4.2 3.6 0l-1.4-11.8zm-.2 0a1.5 1.5 0 01.5.2l-6.7 9.9c1.2.8 2.6 1.4 4.2 1.7l2-11.8zm.6.2l.2.2-10.2 6.2c.7 1.3 1.8 2.5 3.1 3.4l7-9.8zm.3.3c0 .1 0 .2 0 0v-.5l-12 1.4c.2 1.7.7 3.4 1.6 5l10.4-5.9zm0-.5a17 17 0 010-4l-12-1.3a29 29 0 000 6.7l12-1.4zm0-4c.2-1.6.5-3.4 1-5.6l-11.6-2.9a60 60 0 00-1.4 7.1l12 1.5zm-5.5-13l-4 .5 1.5 11.9 4-.5-1.5-11.9zm-4 .5h-.5l1.4 12 .6-.1-1.4-12zm-5.8 6.5l.1 1.8 12-.7-.1-2.1-12 1zm.1 1.9l.1 2h12v-3l-12 1zm.1 2v2.3l12 .8v-3h-12zm0 2.4c0 .7-.2 1.3-.3 1.8l11.8 2.2c.2-1.1.4-2.2.4-3.4l-12-.6zm-.3 1.8c.1-.3.2-.9.7-1.6.6-.8 1.4-1.5 2.5-2l4 11.3c3.3-1.1 4.4-4 4.6-5.5l-11.8-2.2zm3.2-3.5a4.7 4.7 0 013.3 0l-4.7 11c1.6.8 3.6 1 5.5.2l-4.1-11.2zm3.5.1c.7.3 1.1.8 1.4 1.2l-9.8 6.9c.8 1.1 2 2.1 3.3 2.8l5.1-10.9zm1.4 1.2a4.3 4.3 0 01.7 3l-11.8-1.7c-.3 2 .2 4 1.3 5.6l9.8-7zm.7 3c.2-.9.2-1.8.2-2.7l-12-.2v1.3l11.8 1.6zm.2-2.7V124l-12 .7v2l12 .1zm0-2.7l-.2-2.7-12 1 .2 2.2 12-.5zm-.2-2.7l-.2-2.4-12 1.1.2 2.2 12-1zm-4-7.4h.1l.2.2-8.5 8.5c1.1 1 2.4 1.9 3.8 2.4l4.5-11zm.4.3a3 3 0 01.8 1.5l-12 1.5c.3 1.9 1 3.8 2.6 5.3l8.6-8.3zm.8 1.5c0 .5 0 1-.2 1.7l-11.4-3.8a8.2 8.2 0 00-.3 3.6l11.9-1.5zm-.3 1.8c0 .4-.3.8-.7 1.2l-8.8-8.1c-.8.8-1.4 1.8-1.7 2.8l11.2 4zm-.5 1c-.4.5-.9.8-1.4 1l-5-11c-1 .6-2 1.3-2.8 2.3l9.2 7.7zm-1.1.9c-.3.2-.7.3-1 .3l-1.5-11.9c-1 .1-2 .4-3 1l5.5 10.6zm-1 .3h-.7l1.7-11.9h-2.5l1.4 12zm-.6 0c-.5 0-1-.2-1.3-.4l6.1-10.3c-1-.6-2-1-3.3-1.2l-1.5 12zm-1.1-.3l-.8-.6 9.1-7.8a9.3 9.3 0 00-2.5-2.1l-5.8 10.5zm-.8-.6a2 2 0 01-.2-.3l11-4.7c-.4-1-.9-2-1.7-2.8l-9 7.8zm5.3 3.3h1.1v-12h-1v12zm1.5 0h.6l-.5-12h-.9l.8 12zm.6 0l1-.1-1.5-12h.1l.4 12zm1-.1H154.7l-1.4-12h-.1-.2l1.4 12zm.4 0l2.7-.4-1.5-11.9-2.7.3 1.5 12zm2.7-.4a5.3 5.3 0 01-2.7-.3l5.3-10.8-1.4-.6c-.5-.1-1.5-.3-2.7-.2l1.5 12zm-2.6-.3c-.2 0-.3-.2-.3-.2l7.7-9.2c-.7-.6-1.5-1-2.4-1.5l-5 11zm-.2 0l-.3-.5 9.7-7c-.6-.8-1.2-1.4-2-2l-7.4 9.4zm-.2-.3c-.4-.5-1-1.5-1-3l12 .5c.2-2-.7-3.7-1.5-4.8l-9.5 7.3zm-.9-2a5.5 5.5 0 010-1v-.2.2l11.8 2 .1-.8s.1-.8 0-1.6l-11.9 1.4zm0-1l-.3 1.6 11.9 1.9.2-1.4-11.8-2.1zm-.3 1.6l-.3 2.2 11.9 1.7c0-.8.2-1.5.3-2l-11.9-2zm-.3 2.2l-.3 2.8 12 1c0-.8 0-1.5.2-2.1l-12-1.7zm-.3 2.8l-.2 3.1 12 .1.1-2.2-12-1zm-.2 3.1c0 1.2 0 2.3.2 3.4l12-1.4-.2-1.8-12-.2zm.2 3.4c.1.9.3 1.7.6 2.5l11.2-4.3.1.4-11.9 1.4zm.6 2.5c.3.8.8 1.7 1.4 2.5l9.4-7.6.4.8-11.2 4.3zm1.6 2.6a8 8 0 002.8 2.1l4.9-11 1.4 1.1-9.1 7.8zm3 2.2c1.3.5 2.7.7 3.9.5l-1.4-12c.5 0 1.2 0 2 .4l-4.6 11zm3.9.5c2-.2 3.8-1.1 5.2-2.7l-9-8a3.8 3.8 0 012.4-1.2l1.4 12zm5.2-2.7c1-1 1.6-2.2 2-3.4l-11.2-4.2s0-.2.3-.4l8.9 8zm2-3.4c.4-1 .7-2 .8-3.1l-11.9-1.7-.1.6 11.2 4.2zm.8-3l.3-2.4-12-1-.1 1.5 11.8 1.9zm.3-2.5l-.1.6c-.1.4-.3 1-.8 1.5l-9.4-7.4a8.1 8.1 0 00-1.7 4.5l12 .8zm-.8 2a5 5 0 01-3.4 2l-1.5-12a7 7 0 00-4.8 2.9l9.7 7zm-3.4 2c-1.2 0-2-.2-2.6-.5l5-10.9c-1-.4-2.3-.8-3.9-.6l1.5 12zm-2.3-.3a4 4 0 01-1.3-.9l8.3-8.7a8 8 0 00-2.6-1.6l-4.4 11.2zm-1-.7c-.4-.3-.7-.6-.9-1l10.5-5.8a8.2 8.2 0 00-1.8-2.3l-7.9 9.1zm-.7-.7c-.3-.4-.5-1-.6-1.7l11.9-1.5a7.8 7.8 0 00-1.1-3.2l-10.2 6.4zm-.6-1.7a5.1 5.1 0 010-1.8l11.8 2.5c.2-1 .1-1.8 0-2.2l-11.8 1.5zm0-1.8v2.1L173 127v1.8l-11.8-2.5zm0 .5c-.1.6-.2 1.3-.5 2.1l11.6 3.2.8-3.5-12-1.8zm-.5 2.2l-.5 1.3 10.4 6c.8-1.4 1.3-2.8 1.7-4.3l-11.6-3zm-.5 1.3a2 2 0 01-.5.6l7.6 9.3c1.3-1.1 2.4-2.4 3.3-4l-10.4-5.9zm-.5.6l.3-.2 1.4 11.9c2.1-.3 4.1-1 5.9-2.4l-7.6-9.3zm7.6-11.9l-.4-6-6.4.4.8 6.4 6-.8zm.1 1.2l-6 .7.3 2.1 1.6 1.5 4.1-4.3zm3.7 4l-4.7 3.8 4.7-3.8zm3 4.5l-5.3 2.8 5.3-2.8zm2.2 5l-5.8 1.9 5.8-1.9zm1.4 12l-6-.4 6 .4zm-.8 4.8l-5.7-1.8 5.7 1.8zm-1.8 3.4l-4.4-4 4.4 4zm-5 1l3-5.2-3 5.2zm-1.7-1.5l-5 3.2 5-3.2zm-1-2.4l-5.8 1.6v.1l5.8-1.7zm-4-30.6l6-.7-.3-2.5-2-1.5-3.6 4.7zm-.1-.2l-4.4 4.2.3.3.4.3 3.7-4.8zm-.2-.1l4.3-4.2-.3-.3-.3-.3-3.7 4.8zm-1.3-1l-3.9 4.5.1.1.1.1 3.7-4.7zm-.4-2l5.2 3 .1-.1-5.3-2.8zm.9-.5l-.8-6h-.3l-.4.2 1.5 5.8zm.7-.1l.7 6 6-.8-.8-6-6 .8zm-2-15.6l-5.6 2v.3l.1.2 5.5-2.5zm-.2-.5l-5.3 2.8.2.4.3.4 4.8-3.6zm-.2-.2l-4.8 3.6.5.6.6.5 3.7-4.7zm.9-1l1.2 6 .3-.1h.2l-1.7-5.8zm2.7.4l-3.6 4.8h.1l.1.1 3.4-5zm2.7 16l-6 .8.8 6.5 6.4-1.3-1.2-6zm1.8-.2l1 5.9h.2l-1.2-6zm1.7-.4l1 6 .2-.1-1.2-5.9zm1.6-.3l-1-5.9 1 6zm3.5 1.9l-6-.2V116.6l6-.1zm0 1l-6-.5v.2l6 .4zm-.2 1l-5.7-2V116.8l5.7 1.8zm-.6.5l-5 3.3.5.8.8.6 3.7-4.7zm-.2-.2l-3.2 5.1.2.1.3.2 2.7-5.4zm-.4-.2l-1.6 5.8h.1l1.5-5.8zm-.8 0l-.2-6h-.2l.4 6zm-.4 17.8l-5.8 1.4 5.8-1.4zm-1.1-3.7l-5.6 2.1 5.6-2.1zM170 129l-5.3 2.7 5.3-2.7zm-2-3.5l4.9-3.4-11 4.1 6-.7zm3.1 24.7l-5.6 2v.2l5.6-2.2zm.5.9l-4.7 3.7 4.7-3.7zm2.2-3l-6-.6 6 .6zm0-3.6l-6 .2 6-.2zm-12.6-24.8l.1 1.1 12-1.4-.2-1.2-11.9 1.5zm2 4.7c1.1 1.1 2.2 2.3 3.1 3.5l9.4-7.5a47.5 47.5 0 00-4.3-4.7l-8.2 8.7zm3.2 3.5c.9 1.1 1.6 2.3 2.3 3.5l10.6-5.7c-1-2-2.3-3.7-3.7-5.4l-9.2 7.6zm2.3 3.6c.7 1.2 1.3 2.5 1.7 4l11.5-3.7c-.7-2.1-1.6-4.2-2.7-6.1l-10.5 5.8zm1.8 4c.4 1.4.8 3 1 4.8l11.9-1.5c-.3-2.4-.8-4.8-1.5-7l-11.4 3.7zm1 4.8c.2 1.8.3 3.4.2 4.9l12 .7a39 39 0 00-.3-7l-12 1.4zm.2 5c-.1 1.4-.3 2.5-.6 3.3l11.4 3.7c.7-2 1-4.2 1.1-6.4l-12-.7zm-.6 3.4a3 3 0 01-.5 1l8.9 8.1c1.5-1.6 2.4-3.6 3-5.6l-11.4-3.5zm-.5 1.1l.3-.3.7-.2 1.5 12c2.6-.4 4.8-1.7 6.4-3.5l-9-8zm1-.5h.5l1 .3-6 10.4c2 1.2 4 1.4 6 1.2l-1.5-12zm1.3.3l.3.2.1.1-10 6.7c1 1.4 2.2 2.6 3.8 3.5l5.8-10.5zm.5.4c-.1-.2-.3-.4-.4-.9l-11.5 3.5c.4 1.4 1 2.7 1.8 4l10-6.6zm-.4-.8l-.3-1.8-12 1.4c.2 1.3.4 2.5.8 3.7l11.5-3.3zm-.3-1.8l-3.4-27.8-11.9 1.4 3.3 27.8 12-1.4zm-5.6-31.8l-.2-.2-7.4 9.5.2.1 7.4-9.4zm.4.4c-.1-.1 0 0 0 0l-.1-.1-8.7 8.2v.1h.1l8.7-8.2zm-.8-.8h-.2v-.1l-.1-.1-.2-.1v-.1h-.2l-.5-.5-7.5 9.4 1.3 1 7.4-9.5zm-1-.7c.3.2.6.5.9 1l.5 1.7-12 1.4c.3 2 1.4 3.8 2.7 5l7.9-9.1zm1.4 2.7c.1 1.3-.2 2.3-.6 2.8l-10.4-5.9a7.3 7.3 0 00-1 4.5l12-1.4zm-.5 2.7a4.8 4.8 0 01-3 2.4l-2.9-11.6a7.2 7.2 0 00-4.7 3.6l10.6 5.6zm-3.7 2.6a8 8 0 001.1-.3l-3-11.6a3.1 3.1 0 01.4 0l1.5 11.9zm1.1-.3l-.3.1h-.1l-1.4-11.9a9 9 0 00-1.3.2l3.1 11.6zm4.8-6.5l-1.7-14.7-12 1.4 1.8 14.7 12-1.4zm-1.7-14.7a9 9 0 00-.7-2.6l-11 4.9a4 4 0 01-.2-.7v-.2l11.9-1.4zm-.5-2.2c-.2-.5-.5-1.2-1.1-2l-9.6 7.1a4.7 4.7 0 01-.6-1l11.3-4.1zm-.6-1.2c-.3-.6-.8-1.5-1.8-2.3l-7.4 9.5a5.2 5.2 0 01-1.4-1.7l10.6-5.5zm-.8-1.2c.5.6 1 1.5 1.1 2.7l-11.9 1.4c.2 1.4.7 2.4 1.3 3.2l9.5-7.3zm1.1 2.7a5.7 5.7 0 01-2 5l-7.7-9.1c-1.3 1-2.5 3-2.2 5.5l12-1.4zm-2 5l-1 .7-4.8-11c-.5.2-1.2.6-2 1.2l7.9 9.1zm-1 .7l-.7.2-2.5-11.7-1.6.5 4.8 11zm-.2.1h-.4l-1.5-11.8-1.5.3 3.4 11.5zm-.4 0c-.1.1-.4.1-.8 0-.4 0-1-.2-1.4-.6l7-9.7a8.8 8.8 0 00-6.3-1.5l1.5 11.9zm-2-.5c-.3-.2-.7-.5-1-1a4 4 0 01-.7-1.7l12-1.4a8 8 0 00-3.6-5.8l-6.7 10zm-1.7-2.7l1.8 14.6 12-1.4-1.8-14.6-12 1.4zm9 19.8l1.6-.3-2-11.9-2 .4 2.4 11.8zm1.8-.4l1.6-.3-2.2-11.8-1.8.4 2.4 11.7zm1.7-.3l1.3-.2-1.9-11.9-1.8.3 2.4 11.8zm1.3-.2l1-.2-1.4-12-1.5.3 1.9 11.9zm1-.2l-1.3-.2L177 109c-1.6-.6-3-.7-4.4-.5l1.4 12zm-1.3-.2a4.9 4.9 0 01-3-3.8l11.9-1.5c-.2-1-.5-2.3-1.4-3.4-.9-1.3-2-2-3.2-2.5l-4.3 11.2zm-3-3.8v-.1-.1.1l12 .3-.1-1.7-12 1.5zm0 .2v.4l11.9 1.2v-1.9l-12 .3zm-.1.6l.2-.7 11.2 4.1c.4-1 .5-1.8.6-2.7l-12-.7zm0-.4c.1-.2.4-1 1-1.8.8-.8 2-1.7 3.7-2l1.4 12c4-.5 5.2-4 5.4-4.7l-11.4-3.5zm4.7-3.7c1.2-.2 2.8 0 4.2 1.2l-7.4 9.4a6.3 6.3 0 004.6 1.3l-1.4-12zm5.5 2.6c-.9-1.3-2-2-2.5-2.3l-5.4 10.8-.9-.6c-.3-.3-.8-.7-1.2-1.3l10-6.6zm-2-2c-1-.6-1.9-.8-2.3-.9l-2.7 11.7-.4-.1a5 5 0 01-1-.5l6.3-10.2zm-2.1-.9c-1-.2-2-.2-2.5-.2l.3 12h-.1-.3l-.5-.2 3.1-11.6zm-2.7-.2l-6 .4.7 12 6-.4-.7-12zm6.7 26.7a34 34 0 00-.9-4.4l-11.6 3 .6 2.8 11.9-1.4zm-.8-4.3l-1.4-4.4-11.2 4.2 1 3 11.6-2.8zm-1.4-4.4a41 41 0 00-2-4.3l-10.6 5.5 1.4 3 11.2-4.2zm-2-4.3c-.7-1.5-1.5-2.9-2.4-4.2l-9.9 6.8 1.7 2.8 10.7-5.4zm-13.3 0l2.6 22 12-1.4-2.7-22.1-12 1.4zm2.6 22l.3 1.8 11.8-2.3-.1-.9-12 1.4zm.3 1.8c.2.6.3 1.4.6 2l11.3-3.9-.1-.4L165 150zm.7 2.3c.2.7.7 1.6 1.3 2.4l9.5-7.4.3.4v.2l-11.1 4.4zm1.4 2.5a6.7 6.7 0 006 2.5l-1.4-12a5.4 5.4 0 014.7 2l-9.3 7.5zm6 2.5a7.3 7.3 0 005.7-4.5l-11-4.8c.1-.2.3-.7.9-1.2.6-.6 1.6-1.3 3-1.4l1.4 11.9zm5.7-4.5c.7-1.4 1-3 1-4.2l-11.9-1.2v.7c-.1 0-.1 0 0-.1l11 4.8zm1-4.2c.2-1.3.2-2.8.2-4.4l-12 .4v2.8l11.9 1.2zm.2-4.3c0-1.6-.2-3.3-.4-5l-12 1.3c.3 1.5.3 2.8.4 4l12-.3zm9-25l-6-1.2v.1l6 1.1zm-1.2 3l-5.2-2.8 5.2 2.9zm-2 2.8l4 4.3-4-4.3zm-3.1 2l-2.4-5.5-6 2.6 3 5.7 5.4-2.8zm.8 1.2l-4.6 3.9.2.2 4.4-4.1zm2.5 1.4l-1.2 5.9 1.2-6zm4.4-.8l3.3 5 .1-.1-3.4-5zm1.6-1.8l-5-3.2h-.1v.1l5 3.1zm1.3-4.6l-6-.5 6 .5zm.6-1.3l3.4 5h.1l-3.5-5zm1.1-.2l-.9 5.9h.1l.8-6zm1 .5l-4.1 4.3v.1l.2.1 4-4.5zm.6 1.1h6-6zm-.2 1.9l-6-.8v.1l6 .7zm-1.4 4.3l-5.2-3 5.2 3zm-10.8 4.1l1.6-5.8-1.6 5.8zm-3.2-1.6l-3.8 4.6.1.1 3.7-4.7zm-2.4-3l-5.3 2.9 5.3-2.9zm-1.2-8.8l6 1.1-6-1.1zm1.4-3.9l-5.3-3 5.3 3zm2.2-2.7l3.7 4.7-3.7-4.7zm4.8-1l-1.7 5.7 1.7-5.8zm1.6.8l-4 4.4v.1l4-4.5zm1.1 1.5l-5.4 2.5v.2l5.4-2.7zm-7 9.2l6-.7V122.5l-6 1zm.2 1l-6 .7 1.2 9.4 8-5-3.2-5.1zm3.3-5.3l6 1-6-1zm-.4-3.5l-4.8 3.6.2.1 4.6-3.7zm-2 .1l-4.3-4h-.1l4.5 4zm-.6 1.3l-5.6-2.2 5.6 2.2zm-.4 1.6l-6-1v.1l6 1zm-.2 3.5l6-.3-6 .3zm1.7-5v1l11.7 2.4c.4-1.6.5-3.2.3-4.9l-12 1.4zm0 1.1l-.5 1.3 10.5 5.8c.8-1.5 1.4-3.1 1.8-4.8l-11.8-2.3zm-.5 1.3l-1 1.3 8.3 8.6c1.3-1.2 2.3-2.6 3.2-4.1l-10.5-5.8zm-1 1.3l-1.3.8 4.7 11c1.8-.8 3.5-1.8 4.9-3.2l-8.3-8.6zm-4.3 9.1l1.6 2.3 9.1-7.8v-.1l-10.7 5.6zm1.8 2.5c.7.8 1.6 1.5 2.5 2l6-10.4.2.2-8.7 8.2zm2.5 2c1 .6 2.1 1 3.2 1.2l2.4-11.8.4.2-6 10.4zm3.3 1.2c1.2.2 2.5.2 3.6 0l-1.4-11.8h-.1.2l-2.3 11.8zm3.6 0c1.8-.1 3.6-.7 5.2-1.8l-6.7-10H187.1l1.4 11.9zm5.3-1.8c1.3-1 2.5-2.1 3.3-3.6l-10.2-6.2 6.9 9.8zm3.3-3.5c.7-1.2 1.3-2.5 1.7-3.9l-11.7-3-.2.5 10.2 6.4zm1.7-3.9c.3-1.2.4-2.3.5-3.5l-12-.8c0 .4 0 .8-.2 1.3l11.7 3zm.5-3.4c0 .3-.2 2-2 3.2l-6.8-9.9a7.5 7.5 0 00-3.1 5.7l12 1zm-1.9 3.1c-.3.3-.8.5-1.4.7-.7.2-1.3.2-1.9.1l1.8-11.9c-2-.3-4 .3-5.5 1.4l7 9.7zm-3.2.8c-1-.1-1.8-.6-2.3-1.1l8.4-8.6a7.8 7.8 0 00-4.5-2.2l-1.6 12zm-2-.9a4.6 4.6 0 01-1.6-3.3l12-.1c0-2-.9-4.1-2.6-5.6l-7.9 9zm-1.6-3.4l-.1 1.1 11.9 1.5.2-2.5-12-.1zm-.1 1.2l-.2 1 11.4 3.6c.3-1 .6-2.2.7-3.3l-12-1.3zm-.2 1l-.5 1 10.4 6c.6-1 1-2.2 1.5-3.4l-11.4-3.7zm-.5 1l-.5.5 8.1 8.9c1.1-1 2-2.2 2.8-3.5l-10.4-6zm-.5.5c-.1.2-.4.4-.9.6l5.1 10.9c1.4-.7 2.8-1.6 4-2.6l-8.2-8.9zm-.9.6a5 5 0 01-1.4.3l1.4 12c1.7-.3 3.5-.7 5.1-1.4l-5-11zm-1.4.3h-1.2l-3.3 11.5c2 .5 3.9.7 5.9.5l-1.4-12zm-1.2 0a3 3 0 01-1-.6l-7.5 9.4a15 15 0 005.2 2.7l3.3-11.6zm-1-.6c-.3-.2-.6-.6-1-1.2l-10.5 5.9c1 1.7 2.3 3.3 4 4.6l7.5-9.3zm-1-1.1c-.2-.5-.4-1.1-.5-2.1l-12 1.4c.3 2.2 1 4.4 2 6.4l10.6-5.7zm-.5-2.1c-.2-1.1-.1-2 0-2.8l-11.7-2.3c-.5 2.1-.5 4.3-.3 6.5l12-1.4zm0-2.8c.2-1 .5-1.6.7-2.1l-10.5-5.8a19 19 0 00-2 5.6l11.8 2.3zm.7-2.1l.7-.9-7.4-9.4a14.8 14.8 0 00-3.8 4.5l10.5 5.8zm.8-1l-.3.1-1.4-11.9c-2.2.3-4.2 1.2-5.8 2.5l7.5 9.4zm-.3.1h-.4l3.5-11.5c-1.6-.5-3-.6-4.5-.4l1.4 12zm-.4 0a1.9 1.9 0 01-.7-.5l8-8.8a10 10 0 00-4-2.2l-3.3 11.5zm-.7-.4l-.3-.5 10.9-5c-.6-1.2-1.4-2.5-2.6-3.5l-8 9zm-.3-.3v.1l12-1.4c-.2-1.3-.5-2.7-1.2-4l-10.8 5.3zm-7.5 7.2c0 .4 0 .8.2 1.1l11.6-2.7v.2l-11.8 1.4zm.2 1.1v-.1l11.8-1.5c0-.3 0-.7-.2-1l-11.6 2.6zm9 4.2c1.2-.7 2.2-1.5 3-2.5l-9-7.9-.3.3 6.4 10.1zm3-2.5c.9-1 1.5-2 2-3.2l-10.8-5-.2.3 9 8zm2-3.2a14 14 0 001.2-3.6l-11.9-2-.1.6 10.9 5zm1.2-3.6c.2-1.3.2-2.7 0-4l-11.9 1.5v.6l11.9 1.9zm0-4a8.5 8.5 0 00-1.7-4.3l-9.3 7.5a4.2 4.2 0 01-.9-1.7l12-1.5zm-1.6-4.1a6.9 6.9 0 00-6.3-2.8l1.4 12a5.2 5.2 0 01-4.7-2l9.6-7.2zm-6.3-2.8c-2 .3-3.6 1.2-4.8 2.5l8.8 8.1a4.2 4.2 0 01-2.6 1.3l-1.4-11.9zm-5 2.6c-.8 1-1.3 2-1.7 3l11.2 4.4-.1.1-.3.4-9-8zm-1.7 3c-.4 1-.6 2-.8 2.9l11.9 1.9v-.5l-11.1-4.2zm-.8 3a26 26 0 00-.2 2.3l12 .6.1-1.3-11.9-1.6zm-.2 2.3v2.4l12-.7v-1.1l-12-.6zm0 2.3c0 .7 0 1.4.2 2l11.8-2v-.6l-12 .6zm28.5 8.6l-1 5.9 1-6zm-1.8-.8l-3.5 5 3.5-5zm-1.5-1.6l-5.2 3v.1l5.2-3.1zm-.8-8.2l-6-.7 6 .7zm1.2-6.3l5.8 1.4 2-8.4-8.5 1 .7 6zm-4.5.5l-.7-6-5.8.7.5 5.8 6-.5zm.1 2l-6 .3 6-.4zm0 5.1l-6-.4v.1l6 .3zm-.3 2.6l6 1-6-1zm-.7 1l-2-5.7 2 5.7zm-1 0l-2.6 5.4h.2l2.3-5.5zm-1-.9l-5 3.5 5-3.5zm-.3-1.2l6 .8-6-.8zm.1-2l6 .1h-6zm0-2.4l-6 .3 6-.3zm-.2-2.5l6-.4-6 .4zm-.2-2.2l6-.6-.4-3.6-3.3-1.4-2.3 5.6zm-1.7-1.2l-4.4 4.2h.1l4.3-4.2zm-.8-2.8l-5.7-2 5.7 2zm.5-.9l4.4 4h.1l-4.5-4zm.7-.6l2.5 5.5h.1l.2-.1-2.8-5.4zm2-.2l-.9 6h.1l.7-6zm1 .3l-3.1 5.2h.1l3-5.2zm1.6 2l-5.5 2.4 1.5 3.6h4v-6zm1 0v6h.4l-.3-6zm5.1-.2l-2.6 5.4h.1l2.5-5.4zm1 .6l-3.9 4.6h.1v.1l3.8-4.7zm.8.8l-4.9 3.5v.1l.2.1 4.7-3.7zm.3 1l-6-.3v1l6-.7zm-.6 4.3l6 .9-6-.9zm-.4 5.2h6-6zm.9 4.5l-4.7 3.8.1.1 4.6-3.9zm.7.5l-2.5 5.5h.1l2.4-5.5zm3.8-4l-6-1v.1l6 1zm.2-1.9l6 .5-6-.5zm.4-1.2l4.7 3.7.1-.2-4.8-3.5zm1.3-.3l-2.5 5.4h.1l.2.1 2.2-5.5zm.6.4l-4 4.3v.1l.1.1 4-4.5zm.5.6l-5.2 2.9v.1l.1.2 5.1-3.2zm.3 1.1l6 .9v-1.6l-6 .7zm-.6 2.8l-5.8-1.6 5.8 1.6zm-6.5.2h-.3L203 137c1.2.2 2.4.2 3.6 0l-1.4-11.8zm-.2 0a1.6 1.6 0 01.5.2l-6.7 9.9c1.2.8 2.6 1.4 4.2 1.7l2-11.8zm.6.2l.2.2-10.3 6.2c.8 1.3 1.8 2.5 3.2 3.4l7-9.8zm.3.3c0 .1 0 .1 0 0v-.5l-12 1.4c.2 1.7.6 3.4 1.6 5l10.4-5.9zm0-.5c-.2-1.2-.2-2.5 0-4l-12-1.3a29 29 0 000 6.7l12-1.4zm0-4c.1-1.6.5-3.5 1-5.6l-11.6-2.9a60 60 0 00-1.4 7.1l12 1.5zm-5.5-13l-4 .5 1.5 11.9 3.9-.5-1.4-11.9zm-4 .5h-.5l1.4 12 .6-.1-1.5-12zm-5.8 6.5l.1 1.8 12-.7-.2-2.1-12 1zm.1 1.9v2h12v-3l-12 1zm0 2v2.3l12 .8v-3.1h-12zm0 2.4c0 .7 0 1.3-.2 1.8l11.8 2.1.4-3.3-12-.6zm-.2 1.8c0-.3.2-1 .7-1.6.5-.8 1.4-1.6 2.5-2l4 11.3c3.3-1.1 4.3-4 4.6-5.5l-11.8-2.2zm3.2-3.5a4.7 4.7 0 013.3 0l-4.7 11c1.6.7 3.6 1 5.5.2l-4.1-11.2zm3.5.1c.6.3 1.1.8 1.4 1.1l-9.8 7c.8 1.1 1.9 2.1 3.3 2.8l5-10.9zm1.4 1.1a4.3 4.3 0 01.7 3.1l-11.9-1.7c-.3 2 .2 4 1.4 5.6l9.8-7zm.7 3l.2-2.6-12-.2v1.3l11.8 1.6zm.2-2.6v-2.8l-12 .7v2l12 .1zm0-2.7l-.2-2.7-12 .9.2 2.3 12-.5zm-.2-2.8l-.2-2.3-12 1.1.2 2.2 12-1zm-4-7.3h.1l.2.2-8.5 8.5c1 1 2.4 1.9 3.7 2.4l4.6-11zm.4.3a3 3 0 01.7 1.5l-11.9 1.4c.3 2 1 3.9 2.5 5.4l8.7-8.3zm.7 1.5c.1.4 0 1-.1 1.6l-11.4-3.7a8.2 8.2 0 00-.4 3.5l12-1.4zm-.2 1.8c-.1.3-.3.8-.7 1.2l-8.9-8.1c-.8.8-1.3 1.8-1.7 2.8l11.3 4zm-.6 1c-.3.5-.8.8-1.3 1l-5-11c-1 .6-2 1.3-2.8 2.2l9.1 7.8zm-1 .9c-.3.2-.7.3-1 .3l-1.5-12c-1 .2-2 .5-3 1l5.5 10.7zm-1 .3h-.7l1.7-11.9H192l1.4 12zm-.6 0c-.5 0-1-.2-1.3-.4l6-10.4c-.9-.5-2-1-3.2-1l-1.5 11.8zm-1.2-.3l-.7-.6 9.1-7.8a9.3 9.3 0 00-2.6-2.1l-5.8 10.5zm-.7-.6l-.2-.3 11-4.7c-.4-1-1-2-1.7-2.8l-9.1 7.8zm5.3 3.3h1v-12h-1v12zm1.4 0h.6l-.4-12h-1l.8 12zm.6 0l1-.1-1.4-12 .4 12zm1-.1h.4l-1.4-12h-.1-.2l1.3 12zm.4 0l2.7-.4-1.4-11.9-2.7.3 1.4 12zm2.7-.4a5.3 5.3 0 01-2.6-.3l5.3-10.8-1.4-.6c-.5-.1-1.5-.3-2.7-.2l1.4 12zm-2.5-.3l-.4-.2 7.7-9.2c-.6-.6-1.4-1-2.3-1.5l-5 11zm-.2-.1l-.4-.4 9.8-7c-.6-.8-1.3-1.5-2-2l-7.4 9.4zm-.2-.2c-.4-.5-1-1.5-1-3l12 .5c.1-2-.7-3.7-1.6-4.8l-9.4 7.3zm-1-2a5.5 5.5 0 010-1.2v.2l11.9 2v-.8c.1 0 .2-.8.1-1.7l-12 1.5zm0-1l-.2 1.6 11.8 1.9.3-1.4-11.9-2.1zm-.2 1.6l-.4 2.2 12 1.7.2-2-11.8-2zm-.3 2.2l-.4 2.8 12 1 .2-2.1-11.8-1.7zm-.4 2.8v3.1l12 .1v-2.2l-12-1zm0 3.1v3.4l12-1.4v-1.9l-12-.1zm0 3.4l.7 2.5 11.2-4.3.1.4-12 1.4zm.7 2.5c.3.8.8 1.7 1.4 2.5l9.4-7.6.4.8-11.2 4.3zm1.5 2.6a8 8 0 002.8 2.1l5-11c.5.3 1 .7 1.3 1.1l-9 7.8zm3 2.2c1.4.5 2.7.6 4 .5l-1.5-12c.6 0 1.3 0 2 .4l-4.5 11zm4 .5c2-.2 3.8-1.1 5.2-2.7l-9-8a3.8 3.8 0 012.3-1.2l1.5 11.9zm5.2-2.7c.9-1 1.6-2.2 2-3.4l-11.2-4.2.2-.4 9 8zm2-3.4c.4-1 .7-2 .8-3.2l-11.9-1.6-.1.6 11.2 4.2zm.8-3l.3-2.4-12-1c0 .4 0 1-.2 1.5l11.9 1.8zm.3-2.5l-.1.6c-.1.4-.4 1-.8 1.5l-9.5-7.4a8.1 8.1 0 00-1.6 4.5l12 .8zm-.8 2a5 5 0 01-3.4 1.9l-1.5-12a7 7 0 00-4.8 3l9.7 7zm-3.4 1.9c-1.2.1-2.1-.2-2.6-.4l5-10.9c-1-.4-2.3-.8-3.9-.6l1.5 11.9zm-2.3-.3a4 4 0 01-1.3-.8l8.3-8.7a8 8 0 00-2.6-1.6l-4.4 11.1zm-1-.6l-1-1 10.6-5.8a8.2 8.2 0 00-1.9-2.3l-7.8 9.1zm-.8-.7c-.2-.5-.5-1-.5-1.7l11.9-1.5a7.8 7.8 0 00-1.2-3.2l-10.2 6.4zm-.5-1.7a5.3 5.3 0 010-1.8l11.8 2.4c.2-.9.1-1.7 0-2l-11.8 1.4zm0-1.8v2.1l11.9-1.4-.1 1.7-11.8-2.4zm0 .5l-.5 2.1 11.6 3.2c.3-1.2.6-2.4.7-3.5l-11.8-1.8zm-.5 2.2l-.5 1.3 10.4 6c.7-1.4 1.3-2.8 1.7-4.3l-11.6-3zm-.5 1.3a2 2 0 01-.5.5l7.6 9.3a14 14 0 003.3-3.8l-10.4-6zm-.5.5l.3-.1 1.4 11.9c2-.3 4.1-1 5.9-2.5l-7.6-9.3z" fill="#0D0543"/><path d="M118.5 142c-1.1.2-2 .2-2.8 0l-1.8-.6c-.5-.3-.8-.5-1-.8l-.3-.5v-1a4.4 4.4 0 011-1.8c.2-.3.4-.4.6-.4a77.6 77.6 0 001.5 1l1 .2h1.3c1 0 1.9-.5 2.5-1.2.6-.7.8-1.7.7-2.8a4 4 0 00-.8-2 7 7 0 00-1.7-1.5c-.6-.4-1.3-.9-2.2-1.3a312.1 312.1 0 01-5-2.7 11.7 11.7 0 01-4-4.5 10.8 10.8 0 01-.8-6.9 14.4 14.4 0 013.3-6.6 16.8 16.8 0 015.8-4.7c1.2-.5 2.3-.8 3.5-1 1-.1 2 0 2.8.2a5.6 5.6 0 013.7 3 8.3 8.3 0 01.6 5.6c-.2 1-.5 1.9-1 2.8a15.6 15.6 0 01-5.5 6c-.6.4-1.2.6-1.8.6l-1.2-.1-1-.7-.7-1c-.2-.2-.3-.5-.3-.8v-.5H116.2c.7-.1 1.4-.5 2.2-1a11.5 11.5 0 003.8-5c.4-1 .6-1.8.5-2.7a3 3 0 00-1-2c-.4-.4-1.2-.6-2.2-.5a11.5 11.5 0 00-4.2 2 13.7 13.7 0 00-3.6 4c-.4.9-.8 1.7-1 2.7a7.7 7.7 0 00.7 5.3c.5.7 1 1.4 1.7 2l2.3 1.5a138.5 138.5 0 005 2.7c.8.4 1.5 1 2.2 1.6a8 8 0 011.7 2.1c.5.8.8 1.7 1 2.8 0 1 0 2-.3 3a7.5 7.5 0 01-3.6 4.6c-.9.5-1.9.8-3 1zm26.3-3.6c-.5.1-1 0-1.6 0a4.1 4.1 0 01-2.4-1.7c-.3-.4-.5-.9-.6-1.4a9.5 9.5 0 01-1.9 3c-.8.7-1.7 1.2-2.8 1.3a5 5 0 01-2.4-.2 5 5 0 01-2-1.3c-.5-.6-1-1.3-1.3-2.2-.3-1-.6-2-.7-3a30.9 30.9 0 010-8 49.5 49.5 0 01.8-5.2l.6-.6a5 5 0 011.6-.3c.6-.1 1 0 1.2.2.2.2.3.4.3.7 0 .3 0 .7-.2 1l-.2.8a255 255 0 00-.5 5.2 36 36 0 00.3 5.4c.2 1.4.5 2.5 1 3.1.5.7 1.1 1 1.9 1 .5-.1 1-.4 1.3-.8.4-.5.8-1 1-1.7.4-.7.6-1.5.8-2.4l.3-2.7-1-8.3a3.1 3.1 0 00-.7-1.6v-.3c-.1 0 0-.1 0-.2l.4-.2.5-.2.6-.1c.9-.1 1.6 0 2.1.4.6.4.9.9 1 1.5l1.5 13.1.1.6.3.8c0 .2.2.4.5.6.2.2.4.3.8.2.5 0 1-.3 1.2-.7.4-.4.7-1 .9-1.5l.4-1.9.3-1.9c0-.5.1-1 .3-1.2.2-.3.5-.4.7-.4h.7l.6.5.5.6a1.8 1.8 0 01.3.9v.2l-.6 2.8c-.3 1-.7 2-1.2 2.8a8 8 0 01-1.8 2.2c-.8.6-1.7 1-2.9 1.1zm16-1.9h-2a4.6 4.6 0 01-3.3-2.4c-.4-.7-.7-1.7-.8-2.8-.2-1.7-.2-3.4 0-5.3.2-2 .6-4 1.2-6.4l-4 .4-.5.1a67.3 67.3 0 01-.2 9.7c0 .5-.3.9-.6 1h-1.1c-.4-.2-.7-.5-1-.9-.3-.4-.4-.8-.3-1.2l.1-2a33.9 33.9 0 00-.2-4.9l-.2-2.2c-.7-.3-1.2-.7-1.7-1.2s-.8-1.1-.9-1.9a2.2 2.2 0 01.6-1.8l.8-.5c.3-.2.6-.3 1-.3h.9l1 .3.9.8.7 1.2h1a28.5 28.5 0 011.4 0l.4-.1 2.7-.3.6.2c.4.1.7.3 1 .6l.8.8c.3.4.4.7.4 1l-.1.7a90 90 0 00-1 8.8c0 .9 0 1.8.2 2.6l.2 1 .5 1 .7.4c.3.2.6.2 1 .2.6-.1 1-.4 1.4-.8.4-.4.7-1 1-1.5l.4-1.9.2-1.9c0-.5.2-1 .4-1.2.2-.3.4-.4.7-.5.2 0 .4 0 .6.2.3 0 .5.2.7.4l.5.6.2.7v.4a24 24 0 01-.6 2.8c-.2 1-.6 2-1.1 2.8a8 8 0 01-1.9 2.2c-.8.6-1.7 1-2.8 1.1zm6.5-17.6l.1 1.2a41.3 41.3 0 016.7 8.5 28.3 28.3 0 013.4 11c.3 2.1.4 4.1.2 6 0 1.8-.3 3.5-.8 4.8-.4 1.4-1 2.6-1.8 3.4a4.2 4.2 0 01-5 1c-.6-.3-1.2-.9-1.7-1.5-.4-.7-.8-1.5-1-2.4l-.6-2.8-3.3-27.8-.2-.2-.2-.1-1.3-1c-.3-.3-.5-.7-.6-1.1 0-.3 0-.5.2-.8.2-.3.4-.5.9-.6h.3l.4-.1-1.8-14.7a3.2 3.2 0 00-.6-1.6l-.1-.3v-.3l.5-.2.5-.1.6-.2c.8 0 1.5 0 2 .5.6.4 1 .9 1 1.5l1.8 14.6a69.6 69.6 0 017.8-1c.5.2.7.5.8 1v.9a8.5 8.5 0 01-.2 2c0 .4-.2.5-.4.5h-.2l-.2-.2-.4-.2a3 3 0 00-.8 0l-6 .3zm6.3 21.1a27.9 27.9 0 00-1.8-7.3 35.1 35.1 0 00-3.8-7.2l2.7 22.1a18.3 18.3 0 00.5 2.6l.5.9c.2.2.5.4.7.3.4 0 .7-.3 1-1a8 8 0 00.5-2.3v-3.6c0-1.3 0-2.8-.3-4.5zm15.5-23.6a10.2 10.2 0 01-1.3 6c-.5 1-1.2 2-2 2.8-1 .8-2 1.5-3.1 2a4.8 4.8 0 005.2 2.6c1 0 1.8-.4 2.5-.8.6-.5 1.2-1 1.6-1.8l1-2.2.3-2.4c.1-.6.3-1 .6-1.3.4-.2.7-.3 1.1-.2.4 0 .8.2 1 .5.4.3.6.7.6 1.1a16 16 0 01-.6 4l-1 2.2c-.4.7-1 1.3-1.6 2-.7.6-1.5 1-2.4 1.5-1 .5-2 .7-3.3.9a9 9 0 01-9.1-4.9c-.7-1.2-1.1-2.6-1.3-4.2a14.7 14.7 0 011.5-8.5c.6-1.1 1.3-2 2.2-2.7.9-.7 1.8-1.1 2.8-1.2.7-.1 1.4 0 2 .1a4 4 0 011.6 1c.5.3.8.8 1.1 1.4l.6 2.1zm-7.6 7.1l.1.5v.5a7.2 7.2 0 002.8-3.2 8 8 0 00.7-4.3c0-.6-.2-1-.5-1.3-.2-.3-.5-.5-.8-.4-.4 0-.8.2-1.1.5l-.7 1.3-.4 1.6a20.3 20.3 0 000 4.8zm24.3 7.6h-2a4.6 4.6 0 01-3.2-2.4c-.4-.7-.7-1.7-.8-2.8a23 23 0 010-5.4c.2-1.9.6-4 1.2-6.3l-4 .4-.5.1a63.8 63.8 0 01-.2 9.7c0 .5-.3.9-.7 1h-1c-.4-.2-.8-.5-1-.9-.3-.4-.4-.8-.3-1.2l.1-2a33.9 33.9 0 00-.2-4.9l-.2-2.2c-.7-.3-1.3-.7-1.7-1.2-.5-.5-.8-1.1-1-1.9a2.2 2.2 0 01.7-1.8l.7-.6 1-.2h1l1 .3c.3.2.6.4.8.8.3.3.6.7.8 1.2h1a28.5 28.5 0 011.3 0l.4-.1 2.7-.3c.2 0 .4 0 .7.2.3.1.7.3 1 .6l.8.8c.2.3.4.7.3 1v.7a91.4 91.4 0 00-1 8.8c0 .9 0 1.8.2 2.6 0 .4 0 .7.2 1 .1.4.3.6.5.9l.7.5c.3.1.6.2 1 .1.5 0 1-.3 1.4-.7.4-.4.7-1 .9-1.5l.5-1.9.2-1.9c0-.5.1-1 .4-1.2.2-.3.4-.4.6-.5.2 0 .5 0 .7.2.2 0 .4.2.6.4l.5.6c.2.2.3.5.3.7v.4l-.6 2.8c-.3 1-.6 2-1.1 2.8a8 8 0 01-2 2.2c-.7.6-1.6 1-2.7 1.1zM18 151.4c-1.7-.7-3-1.7-3.7-3-.7-1.4-1.2-3.1-1.4-5.1l-1-8.8c-.6-4.1.2-7 2.1-8.8 1.7-1.5 4.2-2.4 7.6-2.8 3.5-.4 6-.2 7.7.5 1.6.8 2.8 2.2 3.4 4.1l.7 3.3-3.7.7a10 10 0 00-1-3.7c-.3-.7-.7-1.1-1-1.4a4 4 0 00-1.7-.5h-3.4c-1.6.3-2.8.5-3.6.8-.9.3-1.6.7-2.2 1.3-1 1-1.4 2.8-1.1 5.3l1.2 10c.3 2.5 1 4 2.4 4.8 1.3.6 3.2.8 5.9.5 2.6-.3 4.2-.8 4.9-1.5.6-.7 1-1.7 1-3l-.1-2.3 3.7-.4c.3 2.8.1 4.8-.6 6-1.2 2.4-4 3.8-8.1 4.3-3.5.4-6.2.3-8-.3zm26.5-8.3c.3 2.3 2 3.3 5.3 2.9 3.3-.4 4.8-1.7 4.5-4l-1-9c-.4-2.2-2.1-3.2-5.4-2.8-3.2.4-4.7 1.7-4.4 4l1 9zm13.4-1.9a6 6 0 01-1.5 5c-1.2 1.4-3.3 2.2-6.3 2.6-2.9.3-5.1 0-6.6-1a6 6 0 01-2.6-4.5l-1-8.3a6 6 0 011.4-5c1.3-1.4 3.3-2.2 6.3-2.6 3-.3 5.1 0 6.6 1a6 6 0 012.7 4.5l1 8.3zm12.5-16.5a13 13 0 014.7.2l-1-9 3.6-.5 3.5 29.2-2.5.3-.8-1.3a9.6 9.6 0 01-5.4 2.5c-2.7.3-4.9 0-6.4-1.1a6.7 6.7 0 01-2.5-4.9l-1-7.7c-.2-2.1.3-3.9 1.6-5.2 1.2-1.3 3.3-2.2 6.2-2.5zM67.3 140c.1 1.2.7 2.1 1.6 2.6 1 .6 2 .8 3.2.6 2-.2 3.8-.8 5-1.8l-1.7-13.6a9.8 9.8 0 00-4.4-.4c-3.4.4-5 1.8-4.8 4.1l1 8.5zm29 3.3c-3 .3-5.3 0-6.8-1.1s-2.4-3-2.7-5.6l-.9-7.2a6 6 0 011.5-5c1.2-1.3 3.3-2.2 6-2.5 2.9-.3 5 0 6.5.9s2.4 2.4 2.6 4.4l.6 4.8-13 1.6.3 2.9c.3 1.7.7 2.8 1.5 3.4.8.6 2 .8 3.8.6l3-.5.7-.4c.3 0 .4-.2.5-.4l.3-.7.2-1.7 3.2-.4c0 1.2-.1 2.2-.3 3-.2.8-.6 1.5-1.2 2s-1.4 1-2.3 1.2c-.9.2-2 .5-3.6.7zM89.7 131l9.5-1.1-.4-2.8c-.1-1.2-.6-2-1.5-2.3-.8-.3-2-.4-3.5-.2-1.6.2-2.7.6-3.5 1.2-.7.6-1 1.6-.9 2.8l.3 2.4z" fill="#FAFAFA"/><path d="M18 151.4l-2 5.6 2-5.6zm-3.7-3L9 151.1l5.3-2.9zm-.3-22.7l-4-4.5 4 4.5zm15.3-2.3l-2.5 5.5 2.5-5.5zm3.4 4.1l-5.7 1.9 5.7-1.9zm.7 3.3l1.2 5.8 5.4-1.1-.7-5.5-6 .8zm-3.7.7l-6 .7.8 6.6 6.5-1.4-1.3-5.9zm-1-3.7l-5 3.2 5-3.2zm-1-1.4l-3.6 5h.1l3.4-5zM26 126l-1 5.9 1-6zm-7 .8l2 5.7-2-5.7zm-2.2 1.3l-4.2-4.3 4.2 4.3zm2.5 20l-2.8 5.4 2.8-5.3zm10.8-1l4.4 4.1-4.4-4zm1-2.8l6 .1-6-.1zm-.1-2.4l-.8-6-6 .8.8 6 6-.8zm3.7-.4l6-.7-.8-6-6 .7.8 6zm-.6 6l-5.2-2.8 5.2 2.9zm-14-1.7a2 2 0 01-.5-.2l-10.5 5.7c1.5 2.9 4 4.7 6.8 5.8l4.3-11.3zm-.5-.2c-.2-.5-.6-1.5-.8-3L7 144c.3 2.5 1 5 2.1 7.2l10.6-5.7zm-.8-3l-1-8.8-12 1.5L7 144l12-1.5zm-1-8.8c-.2-1.5-.1-2.5 0-3l.2-.5-8-9c-4 3.7-4.7 9.1-4.1 14l11.9-1.5zm.2-3.5c.4-.3 1.5-1 4.3-1.3l-1.4-12c-4 .5-8 1.7-10.9 4.3l8 9zm4.3-1.3c1.5-.2 2.6-.2 3.4-.2.8 0 1 .2 1 .2l5-11a20.5 20.5 0 00-10.8-1l1.4 12zm4.5 0l.2.5 11.4-3.7c-1-3.3-3.2-6.2-6.6-7.7l-5 10.9zm.2.5c.2.4.3 1 .4 2l12-1.4c-.2-1.5-.5-3-1-4.3L27 129.4zm5.1-4.5l-3.6.8 2.5 11.7 3.6-.8-2.5-11.7zm3.6 6c-.2-1.2-.3-2.2-.6-3.2-.2-.9-.6-2-1.3-3.2l-10 6.5a3 3 0 01-.3-.5v.1l.3 1.6 11.9-1.4zm-1.9-6.4c-.5-.8-1.4-2-2.8-3l-6.8 9.9a3.7 3.7 0 01-.6-.5h.1l10.1-6.4zm-2.7-3A9.8 9.8 0 0027 120L25 131.8c.2 0 .2 0 0 0l-.9-.5 7-9.7zm-4-1.5c-1.7-.3-3.6-.2-5.3 0l1.5 12 1.4-.2h.2L27 120zm-5.3 0c-1.7.2-3.4.5-4.9 1l4.1 11.4 2.3-.5-1.5-11.9zm-4.8 1c-1.6.6-3 1.5-4.4 2.7l8.4 8.6-.1.1-4-11.3zm-4.4 2.7c-3 3-3.3 7.1-2.9 10.3l12-1.4-.1-.9v-.3l-.1.3-.5.6-8.4-8.6zM9.7 134L11 144l12-1.4-1.3-10.1L9.7 134zM11 144c.4 3 1.6 7.2 5.6 9.3l5.6-10.6.7.5.2.4v-.2l-.2-.8L11 144zm5.6 9.3c3 1.5 6.4 1.5 9.4 1.2l-1.5-12c-1 .2-1.7.2-2.1.1H22l-5.5 10.7zm9.4 1.2c1.5-.2 3-.5 4.3-.9 1.1-.4 2.9-1 4.3-2.6l-8.8-8.1c.4-.5.8-.7.9-.7.1-.1.1-.1 0 0l-2.2.3 1.5 12zm8.6-3.5c1.9-2 2.5-4.5 2.6-6.8l-12-.2v-.3l.6-.8 8.8 8.1zm2.6-6.8c0-1 0-2-.2-3.2L25 142.6l.1 1.5 12 .2zm-5.4 3.5l3.7-.4-1.5-12-3.7.5 1.5 11.9zm-3-5.7l.1 2.4c0 .6-.1.5 0 0l10.6 5.9c1.7-3 1.6-6.7 1.2-9.7L28.7 142zm.2 2.5l-.5.3c-.5.3-1.5.6-3.1.8l1.4 12c5-.6 10.1-2.5 12.7-7.4L29 144.6zm-3.6 1.1c-3.3.4-4.8.2-5.2 0L16 157c3.1 1.1 7 1 10.7.6l-1.4-11.9zm31 .6l4.5 4-4.4-4zm-12.8 1.5l-3.4 5 3.4-5zM41.3 130l4.5 4-4.5-4zm13-1.6l-3.4 5 3.3-5zm-15.7 15.5a9 9 0 004.6 7c2.5 1.3 5.2 1.3 7.3 1L49.1 140h-.8l.6.3c.4.2.9.6 1.2 1.1l.4 1-12 1.5zm12 8c2-.2 4.7-.9 6.8-2.8a9 9 0 002.8-7.8l-11.9 1.4.2-1c.2-.7.5-1.1.9-1.5.3-.3.5-.3.5-.3l-.8.1 1.4 12zm9.6-10.6l-1-9-12 1.5 1.1 8.9 12-1.4zm-1-9a9 9 0 00-4.7-7 12.2 12.2 0 00-7.3-1l1.4 11.9h.8l-.6-.3c-.4-.2-.8-.6-1.2-1.1-.3-.5-.3-.9-.3-1l11.9-1.4zm-12-8c-2.1.2-4.8.9-6.8 2.8a9 9 0 00-2.9 7.9l12-1.5-.2 1c-.2.7-.5 1.1-.9 1.5l-.5.3.7-.1-1.4-12zM37.5 135l1 8.9 12-1.5-1-8.9-12 1.5zm14.4 7V142.1c.1 0 .1 0 0 0l8.9 8.1a12 12 0 003-9.8L52 142zm0 .2l-.2.1a9 9 0 01-2.3.5l1.5 12c3.5-.5 7.2-1.6 9.9-4.5l-8.8-8.1zm-2.5.6a9 9 0 01-2.3 0h-.3l-6.6 10c3.2 2.2 7.1 2.4 10.7 2l-1.5-12zm-2.6 0l.1.1v-.3l-12 1.4a12 12 0 005.2 8.8l6.7-10zm0-.2l-1-8.3-11.9 1.4 1 8.3 12-1.4zm-1-8.3v-.4.1l-8.9-8.1a12 12 0 00-3 9.8l12-1.4zm0-.3l.3-.1c.4-.2 1.1-.4 2.2-.5l-1.4-12c-3.6.5-7.3 1.6-10 4.5l8.9 8.1zm2.5-.6c1-.2 1.8-.1 2.3 0h.3l6.7-10a15.7 15.7 0 00-10.7-2l1.4 12zm2.6 0c0-.1 0-.1 0 0v.3l12-1.5a12 12 0 00-5.3-8.8l-6.7 10zm0 .3l1 8.2 12-1.4-1-8.3-12 1.5zm24.2-8.8l-1.4 5.8 8.4 2-1-8.5-6 .7zm-1-9l-.8-6-6 .7.7 6 6-.7zm3.6-.5l6-.7-.8-6-6 .8.8 6zm3.5 29.2l.7 6 6-.7-.8-6-6 .7zm-2.5.3l-5.2 3 2 3.4 3.9-.4-.7-6zm-.8-1.3l5.2-3-4-6.6-5.4 5.4 4.2 4.2zM66.1 145l-3.6 4.8 3.6-4.8zm-2-17.8l-4.3-4.1 4.4 4zm4.8 15.4l-3 5.2 3-5.2zm8.2-1.2l3.7 4.7 2.6-2-.4-3.4-6 .7zm-1.7-13.6l6-.7-.5-3.8-3.5-1.2-2 5.7zm-4.2 2.8a7 7 0 012.5.1l2.8-11.6a19 19 0 00-6.8-.4l1.5 12zm9.8-6.4l-1-9-12 1.4 1.1 9 12-1.4zm-6.3-2.4l3.7-.4-1.5-12-3.6.5 1.4 12zm-3-5.7l3.5 29.2 12-1.4-3.6-29.2-12 1.4zm8.7 22.6l-2.4.3 1.4 11.9 2.5-.3-1.5-12zm3.4 3.2l-.7-1.3-10.3 6.1.7 1.3 10.3-6.1zm-10.1-2.5h-.1l-.6.4 5.1 10.8c1.4-.6 2.8-1.5 4-2.7l-8.4-8.5zm-.7.4l-1.2.3 1.5 12c1.7-.3 3.3-.8 4.8-1.5L73 139.8zm-1.2.3a7 7 0 01-2 0c-.2 0-.2 0 0 0l-7.2 9.7c3.2 2.4 7.2 2.7 10.7 2.3l-1.5-12zm-2 0c-.1 0-.2-.2-.3-.7L57.6 141c.4 3.4 2 6.6 5 8.9l7.2-9.6zm-.3-.7l-.9-7.7-11.9 1.4 1 7.8 11.8-1.5zm-.9-7.7v-.5.1l-8.8-8.2a12 12 0 00-3.1 10l12-1.4zm0-.4l.3-.2a9 9 0 012.3-.5l-1.5-11.9a16 16 0 00-9.9 4.4l8.7 8.2zm-7.3 9.4a9.3 9.3 0 004.6 7.1l6-10.4 1 1c.3.4.3.8.3.9l-11.9 1.4zm4.6 7.2a11 11 0 007 1.3l-1.5-12 .1.1.4.1-6 10.5zm7 1.3c2.7-.3 5.6-1.2 8-3.1l-7.6-9.4s-.6.4-2 .6l1.5 11.9zm10.1-8.5L81.4 127l-12 1.4 1.7 13.6 12-1.4zM77.4 122c-2.3-.8-4.7-1-7-.6l1.4 11.9a4 4 0 011.7 0l3.9-11.3zm-7-.6a13 13 0 00-7 2.7 9 9 0 00-3.1 8l12-1.4c0 .2 0 .6-.3 1.2-.2.6-.5 1-.9 1.3l-.3.3 1-.2-1.5-12zm-10.1 10.8l1 8.4 12-1.4-1-8.5-12 1.5zm39.6-9.5l-3.2 5v.1l3.2-5.1zm3.2 9.2l.7 6 6-.7-.7-6-6 .7zm-13 1.6l-.7-6-6 .8.7 6 6-.8zm1.8 6.3l-3.7 4.8L92 140zm8-.7l-5.3-3v.3l-.1.1 5.4 2.6zm.3-.7l-5.5-2.3v.1l5.5 2.2zm.2-1.7l-.8-6-5.4.7.2 5.4 6-.1zm3.2-.4l6-.1-.1-6.7-6.6.8.7 6zm-.3 3l-5.8-1.6v.1l5.8 1.5zm-1.2 2l3.9 4.5-4-4.5zm-2.3 1.2l-1.7-5.8 1.7 5.8zm-10-11.5l-6 .8.8 6 6-.8-.8-6zm9.5-1.1l.7 6 6-.8-.8-6-6 .8zm-1.9-5l-2.2 5.5 2.2-5.6zm-7 1l-3.8-4.7 3.8 4.6zm5.1 11.3h-2.3c-.4 0-.4-.1-.2 0l-7 9.7c3.2 2.4 7.3 2.6 11 2.2l-1.5-12zm-2.5 0c.1.1.1.2 0 0l-.3-1.4-11.9 1.4c.4 3.6 1.8 7.3 5.1 9.7l7.1-9.7zm-.3-1.4l-.8-7.2-12 1.5 1 7.1 11.8-1.4zm-.8-7.2v-.3h-.1v.1l-8.8-8.2a12 12 0 00-3 9.9l11.9-1.5zm-.1-.2c-.1.1.3-.4 2.4-.6l-1.5-12c-3.4.5-7 1.6-9.7 4.4l8.8 8.2zm2.4-.6c1-.2 1.7-.1 2.2 0h.3l6.4-10.2c-3.2-2-7-2.2-10.4-1.8l1.5 12zm2.6 0h-.1l-.2-.3v.3l12-1.5c-.5-3.5-2.2-6.7-5.5-8.7l-6.2 10.2zm-.2 0l.5 4.9 12-1.5-.6-4.9-12 1.5zm5.8-1.8l-13 1.5 1.4 12 13-1.6-1.4-12zM84 134.3l.4 3 12-1.5-.4-3-12 1.5zm.4 3c.3 2 1 5.3 3.7 7.4l7.4-9.5c.6.5.8 1 .9 1.1v-.5l-12 1.4zm3.8 7.4c2.7 2 6 2 8.1 1.7L95 134.5h-.7s.6.1 1.2.6l-7.2 9.6zm8.1 1.7a64.5 64.5 0 003.3-.4l1.6-.6-5.1-10.8a5.6 5.6 0 01.8-.3h.1a2.7 2.7 0 00-.2 0l-1.9.2 1.4 12zm4.9-1l1-.5-5.8-10.5c-.2 0-.3.1-.3.2l5.1 10.8zm1-.5a7 7 0 003-3l-10.8-5.3a5.3 5.3 0 012-2.2l5.9 10.5zm2.8-2.8l.7-1.3-11.2-4.5v.1a1.2 1.2 0 010-.1l10.5 5.8zm.6-1.3c.7-1.6.7-3.4.7-4.2l-12 .3V137l.3-.8 11 4.6zm-4.6 2l3.2-.5-1.4-11.9-3.3.4 1.5 12zm-3.5-6.3v1l-.1.3 11.6 3.3c.4-1.6.5-3.2.5-4.8l-12 .2zm-.1 1.4a2 2 0 01.6-1l8 9c1.4-1.3 2.5-3 3-5l-11.6-3zm.6-1h.1v-.1l3.3 11.5c1.6-.4 3.1-1.2 4.5-2.4l-7.9-9zm0 0l-2.6.4 1.5 12a28 28 0 004.5-1l-3.4-11.5zm-7.6.2l9.5-1.1-1.4-12-9.5 1.2 1.4 11.9zm14.7-7.8l-.3-2.8-12 1.4.4 2.8 12-1.4zm-.3-2.8a8.5 8.5 0 00-5.2-7.1l-4.5 11.1c-.7-.3-1.3-.8-1.8-1.4l-.4-1.2 11.9-1.4zm-5.2-7.1c-2.2-1-4.6-.9-6.5-.7l1.4 12 1-.1-.4-.1 4.5-11.1zm-6.5-.7c-2.1.3-4.6 1-6.6 2.6l7.6 9.2-.3.3h.2l.5-.2-1.4-11.9zm-6.6 2.6a8.9 8.9 0 00-3 8l11.9-1.3-.2 1c-.2.6-.6 1.1-1 1.5l-7.7-9.2zm-3 8l.2 2.6 12-1.5-.3-2.4-12 1.4z" fill="#0D0543"/><path d="M18 151.4c-1.7-.7-3-1.7-3.7-3-.7-1.4-1.2-3.1-1.4-5.1l-1-8.8c-.6-4.1.2-7 2.1-8.8 1.7-1.5 4.2-2.4 7.6-2.8 3.5-.4 6-.2 7.7.5 1.6.8 2.8 2.2 3.4 4.1l.7 3.3-3.7.7a10 10 0 00-1-3.7c-.3-.7-.7-1.1-1-1.4a4 4 0 00-1.7-.5h-3.4c-1.6.3-2.8.5-3.6.8-.9.3-1.6.7-2.2 1.3-1 1-1.4 2.8-1.1 5.3l1.2 10c.3 2.5 1 4 2.4 4.8 1.3.6 3.2.8 5.9.5 2.6-.3 4.2-.8 4.9-1.5.6-.7 1-1.7 1-3l-.1-2.3 3.7-.4c.3 2.8.1 4.8-.6 6-1.2 2.4-4 3.8-8.1 4.3-3.5.4-6.2.3-8-.3zm26.5-8.3c.3 2.3 2 3.3 5.3 2.9 3.3-.4 4.8-1.7 4.5-4l-1-9c-.4-2.2-2.1-3.2-5.4-2.8-3.2.4-4.7 1.7-4.4 4l1 9zm13.4-1.9a6 6 0 01-1.5 5c-1.2 1.4-3.3 2.2-6.3 2.6-2.9.3-5.1 0-6.6-1a6 6 0 01-2.6-4.5l-1-8.3a6 6 0 011.4-5c1.3-1.4 3.3-2.2 6.3-2.6 3-.3 5.1 0 6.6 1a6 6 0 012.7 4.5l1 8.3zm12.5-16.5a13 13 0 014.7.2l-1-9 3.6-.5 3.5 29.2-2.5.3-.8-1.3a9.6 9.6 0 01-5.4 2.5c-2.7.3-4.9 0-6.4-1.1a6.7 6.7 0 01-2.5-4.9l-1-7.7c-.2-2.1.3-3.9 1.6-5.2 1.2-1.3 3.3-2.2 6.2-2.5zM67.3 140c.1 1.2.7 2.1 1.6 2.6 1 .6 2 .8 3.2.6 2-.2 3.8-.8 5-1.8l-1.7-13.6a9.8 9.8 0 00-4.4-.4c-3.4.4-5 1.8-4.8 4.1l1 8.5zm29 3.3c-3 .3-5.3 0-6.8-1.1s-2.4-3-2.7-5.6l-.9-7.2a6 6 0 011.5-5c1.2-1.3 3.3-2.2 6-2.5 2.9-.3 5 0 6.5.9s2.4 2.4 2.6 4.4l.6 4.8-13 1.6.3 2.9c.3 1.7.7 2.8 1.5 3.4.8.6 2 .8 3.8.6l3-.5.7-.4c.3 0 .4-.2.5-.4l.3-.7.2-1.7 3.2-.4c0 1.2-.1 2.2-.3 3-.2.8-.6 1.5-1.2 2s-1.4 1-2.3 1.2c-.9.2-2 .5-3.6.7zM89.7 131l9.5-1.1-.4-2.8c-.1-1.2-.6-2-1.5-2.3-.8-.3-2-.4-3.5-.2-1.6.2-2.7.6-3.5 1.2-.7.6-1 1.6-.9 2.8l.3 2.4z" fill="#FAFAFA"/><path d="M58.7 168.5l15.9-2M92.4 164.4l47.7-5.7M90.6 182.8l19.9-2.4M128.3 178.2l19.9-2.3" stroke="#FAFAFA" stroke-width="6" stroke-linecap="round"/><path d="M27 140l-.8-7" stroke="#0D0543" stroke-width="6" stroke-linecap="round"/><path d="M102.3 55.3c-.7 2.2-1.8 4-3.4 5.1a11.8 11.8 0 01-6.5 2l-4.6.3c-3.5.1-5.2 1.5-5.1 4l-3.2.2c0-2.6-1.9-3.7-5.4-3.6l-4.5.2c-2.7.2-5-.3-6.6-1.3a9 9 0 01-3.8-4.9l2.5-.9c1 2.3 3.5 3.4 7.5 3.3l4.7-.3c3.3-.1 5.7.8 7 3 1.3-2.3 3.6-3.5 7-3.6l4.7-.3c4-.2 6.3-1.5 7.1-3.9l2.6.7zM62.5 84.3c-.1 1.6-.6 2.6-1.4 3.1-.8.5-2 .7-3.7.6l-3.4-.3c-.7 0-1.2.1-1.5.5-.2.3-.4.8-.5 1.5l-1.9-.2c0-.7 0-1.2-.2-1.5-.3-.4-.7-.6-1.4-.7l-3.3-.2c-1.6-.1-2.8-.5-3.5-1.1-.7-.7-1-1.7-.9-3.3l.1-1h2l-.1.7c0 .7 0 1.1.4 1.4.2.3.7.4 1.3.5l4.4.3c.5 0 1 .3 1.5.6s.8.7 1 1.2c.3-.5.7-.8 1.1-1a3 3 0 011.6-.4l4.5.3c.6 0 1.1 0 1.5-.2.3-.3.5-.7.5-1.3V83l2 .1-.1 1.1zM78.5 94.4h.6l.4.4v.4l.3.5.3.3h1.6v-.1h.4a9.5 9.5 0 011.1-.3l.3-.1h.3l.3-.1.5-.1a782.7 782.7 0 001-.2h1.1l.3-.1h.3l.2.1.5.2h.3l.4.4h.2l.1.1.4.3.2-.3.3-.2.3-.2v-.1l.2-.3c.1 0 .2 0 .3-.2l.3-.1v-.1l.3-.2.4-.2h.2l.2-.1a160.2 160.2 0 011.2-.2h.3l.2-.1h.6l.3-.1h.2s.2-.1.2 0l.1-.1h.4l.3-.1h.1a7 7 0 01.7-.2h.3a7.2 7.2 0 01.9-.4 28.5 28.5 0 00.6-.8v-.2l-.1-.5V91a1.1 1.1 0 01.5-.2h1.2l.1.2v.2l.1.3v.3l.1.2v.3l.1.2V94.6l-.3.4-.2.2h-.1l-.2.1h-.1l-.4.3a1 1 0 01-.3 0v.2l-.6.1-.6.2a568.6 568.6 0 00-1.7 0l-.3.1h-.4l-.8.1h-.4l-.3.1h-.4l-.2.2h-.1l-.2.1-.1.1h-.2l-.3.1-.2.3-.4.1v.1l-.3.3-.2.2-.1.2v.1l-.3.3-.3.4h-.2l-.3.1h-.2-.2-.1l-.4.2h-.2l-.2-.3-.2-.3-.2-.4-.1-.2-.4-.2h-1.2-.6a2 2 0 01-.3.1h-.2-.2l-.3.1-.3.1h-.5l-.3.2a2 2 0 01-.6.1h-.4l-.3.2a2 2 0 00-.5.1h-.3l-.6.2H81l-.6-.1h-.2l-.2-.1a3 3 0 00-.3 0l-.3-.1-.3-.1-.1-.1-.2-.2-.4-.4-.2-.2a1 1 0 01-.3-.5v-.3-.6l-.2-.4v-.2-.1-.2l-.1-.2V95v-.3l.3-.2h.7z" fill="#0D0543"/></g><defs><linearGradient id="paint0_linear" x1="109.5" y1="18" x2="109.5" y2="201" gradientUnits="userSpaceOnUse"><stop stop-color="#F6ED01"/><stop offset=".6" stop-color="#EC3137"/><stop offset=".6" stop-color="#247DAE"/></linearGradient><clipPath id="clip0"><path fill="#fff" d="M0 0h219v219H0z"/></clipPath></defs></svg>